<svg width="24" height="22" viewBox="0 0 24 22" fill="none" xmlns="http://www.w3.org/2000/svg">
<path fill-rule="evenodd" clip-rule="evenodd" d="M2.04481 0.29136L1.9322 0.382722L1.91841 1.96734L1.90463 3.55191L2.04591 3.6936C2.17765 3.82566 2.21165 3.83528 2.54858 3.83528H2.90998V4.71642V5.5975L2.75497 5.63099C2.66973 5.64936 2.46821 5.72398 2.30724 5.79673C1.56145 6.13381 0.899658 6.77038 0.548562 7.48816C0.138799 8.32601 0.170661 7.78181 0.154921 14.2103C0.14271 19.2107 0.150008 19.9527 0.21354 20.1721C0.307264 20.4954 0.651969 20.8862 0.977309 21.0382L1.21675 21.15L7.2087 21.1504L13.2006 21.1509L13.4621 21.2669C13.7908 21.4127 14.4031 21.5971 14.9296 21.7089C15.5435 21.8392 16.9773 21.8276 17.6244 21.687C20.5645 21.0483 22.6775 18.901 23.2589 15.961C23.3899 15.2985 23.3777 13.9258 23.2348 13.2584C22.919 11.7834 22.3025 10.6449 21.2532 9.5989C20.2416 8.59058 19.1978 8.01146 17.7914 7.6782C16.9972 7.49007 15.422 7.46965 14.8342 7.63989C14.7855 7.654 14.7133 7.56522 14.6083 7.36231C14.413 6.98476 14.1012 6.60224 13.7495 6.30845C13.448 6.05666 12.7339 5.67495 12.4723 5.62573L12.3062 5.59444V4.71489V3.83528H12.6676C13.0046 3.83528 13.0386 3.82566 13.1703 3.6936L13.3116 3.55191L13.2978 1.97657C13.2849 0.505414 13.278 0.394537 13.1932 0.300592L13.1023 0.199951H7.62986C2.31382 0.199951 2.15418 0.202582 2.04481 0.29136ZM12.497 1.9937V3.02211H7.60811H2.71919V1.9937V0.965283H7.60811H12.497V1.9937ZM11.4954 4.64844V5.46161H7.60811H3.72083V4.64844V3.83528H7.60811H11.4954V4.64844ZM12.2721 6.42564C12.9147 6.64544 13.4397 7.05216 13.8053 7.61348L13.9763 7.87599L13.7293 7.96018C12.755 8.29229 11.594 9.10067 10.8437 9.96937L10.5653 10.2917L5.75986 10.2922L0.954414 10.2928L0.955225 9.58723C0.956226 8.75359 1.02696 8.36231 1.26363 7.88202C1.65594 7.08569 2.47265 6.4763 3.34679 6.32758C3.48797 6.30352 5.45155 6.28745 7.7512 6.29147L11.9008 6.29869L12.2721 6.42564ZM17.2485 8.40493C20.4065 8.95148 22.6933 11.7588 22.5465 14.9087C22.3496 19.1334 18.2328 22.0073 14.2642 20.6907C11.6652 19.8285 9.91816 17.4208 9.91244 14.6934C9.90967 13.3837 10.253 12.2344 10.977 11.1299C11.2946 10.6452 12.1709 9.75924 12.6493 9.43899C13.4811 8.88226 14.4057 8.52155 15.4065 8.36346C15.7295 8.31247 16.8614 8.33792 17.2485 8.40493ZM9.82272 11.4952C9.5622 12.0148 9.27946 12.8859 9.18049 13.4737C9.09912 13.9572 9.06773 15.248 9.13236 15.4523L9.1647 15.5544H5.05953H0.954414V13.3302V11.1059H5.48613H10.0179L9.82272 11.4952ZM12.6548 11.442C12.5156 11.4972 12.4322 11.6332 12.2319 12.1312C11.7645 13.2939 11.5991 14.6039 11.7879 15.6501C12.0143 16.9046 12.8463 18.0938 13.8741 18.6321C14.5434 18.9826 14.7118 19.0121 16.1478 19.0307C17.313 19.0458 17.4744 19.0382 17.8172 18.9518C18.2944 18.8317 18.8769 18.5408 19.2551 18.2338C19.8846 17.723 20.4817 16.7869 20.7045 15.961C20.8342 15.4806 20.8839 14.2745 20.7987 13.6782C20.6743 12.8076 20.3848 11.8821 20.1886 11.7273C20.0429 11.6123 19.9004 11.6091 19.3141 11.7077C18.439 11.8548 17.476 12.2335 16.6849 12.7416L16.3177 12.9775L15.9695 12.7178C15.7779 12.575 15.4689 12.3687 15.2828 12.2593C14.471 11.7823 12.972 11.3162 12.6548 11.442ZM13.7187 12.4677C14.6733 12.788 15.322 13.1709 15.9074 13.7596C16.3599 14.2147 16.596 14.6023 16.7968 15.2196C16.9972 15.8354 17.0067 16.4526 16.8241 16.9894C16.7091 17.3274 16.4884 17.7768 16.415 17.8223C16.3967 17.8336 15.9769 17.0535 15.4821 16.0888C14.9873 15.124 14.5641 14.3144 14.5416 14.2895C14.4894 14.2317 13.8325 14.5456 13.8325 14.6283C13.8325 14.6612 14.2398 15.4804 14.7374 16.4487L15.6424 18.2092L15.459 18.2236C14.9768 18.2615 14.1794 17.9345 13.7142 17.508C12.5183 16.412 12.2253 14.7468 12.8799 12.7668C13.0061 12.3854 13.0509 12.3018 13.129 12.3018C13.1814 12.3018 13.4467 12.3764 13.7187 12.4677ZM19.795 12.8877C20.148 14.1991 20.1001 15.5214 19.6683 16.3838C19.3207 17.0781 18.7658 17.6508 18.1584 17.9419C17.7958 18.1157 17.2476 18.2777 17.1962 18.2262C17.184 18.2139 17.2597 18.0398 17.3645 17.8393C17.6538 17.2856 17.7576 16.8388 17.7562 16.1523C17.7553 15.7242 17.7297 15.4837 17.6555 15.206C17.5429 14.7846 17.2525 14.1355 17.0347 13.8179L16.8884 13.6046L17.1423 13.4356C17.6817 13.0764 18.3207 12.7939 19.0029 12.6128C19.6905 12.4303 19.67 12.4233 19.795 12.8877ZM9.43514 16.8579C9.52071 17.1275 9.67586 17.5286 9.77989 17.749C9.88397 17.9695 9.9691 18.1578 9.9691 18.1676C9.9691 18.1773 8.75641 18.1853 7.27424 18.1853H4.57937V18.5679V18.9506L7.54849 18.9517L10.5176 18.9528L10.6607 19.1481C10.7394 19.2556 11.047 19.5784 11.3443 19.8655L11.8848 20.3876L6.64617 20.3746L1.40753 20.3617L1.24713 20.2469C0.960758 20.0421 0.954414 19.9953 0.954414 18.0911V16.3676H5.11701H9.27955L9.43514 16.8579Z" fill="#0B1547"/>
</svg>
