<svg width="25" height="24" viewBox="0 0 25 24" fill="none" xmlns="http://www.w3.org/2000/svg">
<mask id="path-1-outside-1_210_181" maskUnits="userSpaceOnUse" x="0.5" y="0" width="24" height="24" fill="black">
<rect fill="white" x="0.5" width="24" height="24"/>
<path d="M12.3321 23C12.3025 22.9998 12.2734 22.9924 12.2472 22.9784C12.221 22.9644 12.1985 22.9442 12.1815 22.9195L4.26639 10.9098C4.24356 10.8786 4.23122 10.8406 4.23122 10.8017C4.23122 10.7627 4.24356 10.7248 4.26639 10.6935L4.28367 10.6709C4.30076 10.6497 4.32224 10.6326 4.34656 10.6209C4.37088 10.6092 4.39744 10.603 4.42435 10.603H9.67888C9.71983 10.6026 9.75963 10.6167 9.79156 10.6428C9.82349 10.669 9.84559 10.7055 9.85412 10.7463L12.5073 22.7762C12.5169 22.8181 12.5115 22.8622 12.492 22.9005C12.4725 22.9387 12.4403 22.9687 12.4012 22.9849C12.3794 22.9947 12.3559 22.9998 12.3321 23ZM4.74273 10.9702L11.9495 21.9034L9.5382 10.9702H4.74273Z"/>
<path d="M12.3321 23C12.2912 22.9999 12.2517 22.9856 12.2198 22.9596C12.188 22.9335 12.1658 22.8972 12.1568 22.8566L9.50612 10.8268C9.49997 10.7999 9.49988 10.7718 9.50587 10.7448C9.51185 10.7178 9.52375 10.6925 9.54067 10.6709C9.5575 10.65 9.57857 10.6331 9.60244 10.6214C9.62631 10.6097 9.65239 10.6034 9.67888 10.603H14.9803C15.0072 10.603 15.0338 10.6092 15.0581 10.6209C15.0824 10.6326 15.1039 10.6497 15.121 10.6709C15.1379 10.6925 15.1498 10.7178 15.1558 10.7448C15.1618 10.7718 15.1617 10.7999 15.1555 10.8268L12.5073 22.8566C12.4979 22.897 12.4756 22.9331 12.4439 22.959C12.4121 22.985 12.3728 22.9994 12.3321 23ZM9.90595 10.9702L12.3321 21.9789L14.7557 10.9702H9.90595Z"/>
<path d="M12.3321 23C12.3067 22.9999 12.2815 22.9947 12.258 22.9849C12.2179 22.9696 12.1846 22.94 12.1642 22.9017C12.1438 22.8633 12.1377 22.8187 12.147 22.7762L14.8051 10.7463C14.814 10.7057 14.8362 10.6694 14.8681 10.6434C14.8999 10.6174 14.9395 10.6031 14.9803 10.603H20.5705C20.5954 10.6027 20.6202 10.6077 20.6431 10.6176C20.666 10.6276 20.6867 10.6423 20.7038 10.6608L20.7235 10.6835C20.7507 10.7144 20.767 10.7538 20.7696 10.7953C20.7723 10.8368 20.7613 10.878 20.7383 10.9123L12.4777 22.922C12.4614 22.946 12.4396 22.9656 12.4143 22.9792C12.3889 22.9928 12.3607 22.9999 12.3321 23ZM15.1259 10.9702L12.7072 21.9512L20.2595 10.9702H15.1259Z"/>
<path d="M20.5705 10.9702H14.9803C14.9325 10.9702 14.8867 10.9508 14.8529 10.9164C14.8191 10.882 14.8001 10.8353 14.8001 10.7866V7.12456C14.8001 7.07587 14.8191 7.02917 14.8529 6.99474C14.8867 6.9603 14.9325 6.94096 14.9803 6.94096H17.3299C17.355 6.9413 17.3797 6.94683 17.4026 6.9572C17.4255 6.96758 17.4461 6.98259 17.4632 7.00132L20.7038 10.6633C20.7273 10.6893 20.7429 10.7217 20.7486 10.7565C20.7543 10.7914 20.7499 10.8272 20.7359 10.8595C20.7219 10.8924 20.6988 10.9204 20.6694 10.94C20.64 10.9597 20.6057 10.9702 20.5705 10.9702ZM15.1605 10.603H20.1657L17.2485 7.30817H15.1605V10.603Z"/>
<path d="M14.9803 10.9702H9.67888C9.6311 10.9702 9.58527 10.9508 9.55148 10.9164C9.5177 10.882 9.49871 10.8353 9.49871 10.7866V7.12456C9.49871 7.07587 9.5177 7.02917 9.55148 6.99474C9.58527 6.9603 9.6311 6.94096 9.67888 6.94096H14.9803C15.0281 6.94096 15.0739 6.9603 15.1077 6.99474C15.1415 7.02917 15.1605 7.07587 15.1605 7.12456V10.7866C15.1605 10.8353 15.1415 10.882 15.1077 10.9164C15.0739 10.9508 15.0281 10.9702 14.9803 10.9702ZM9.86152 10.603H14.7977V7.30817H9.86152V10.603Z"/>
<path d="M9.67888 10.9702H4.43176C4.39757 10.9701 4.3641 10.9602 4.33525 10.9415C4.30641 10.9228 4.28338 10.8961 4.26886 10.8645C4.25463 10.8333 4.24917 10.7987 4.25309 10.7645C4.25701 10.7303 4.27016 10.6979 4.29108 10.6709L7.19353 7.00887C7.21062 6.98769 7.2321 6.97062 7.25642 6.95888C7.28074 6.94714 7.3073 6.94102 7.33421 6.94096H9.67888C9.72667 6.94096 9.7725 6.9603 9.80628 6.99474C9.84007 7.02917 9.85905 7.07587 9.85905 7.12456V10.7866C9.85905 10.8353 9.84007 10.882 9.80628 10.9164C9.7725 10.9508 9.72667 10.9702 9.67888 10.9702ZM4.80937 10.603H9.49871V7.30817H7.41813L4.80937 10.603Z"/>
<path d="M11.0536 6.21158C11.0155 6.21108 10.9785 6.1988 10.9475 6.17636C10.917 6.15309 10.8945 6.1207 10.883 6.08372C10.8715 6.04674 10.8716 6.00703 10.8833 5.97012L11.4065 4.35793L10.054 3.36446C10.0227 3.34246 9.99932 3.31069 9.9873 3.27395C9.97528 3.2372 9.97532 3.19746 9.98739 3.16074C9.99918 3.12397 10.0219 3.09187 10.0524 3.06888C10.083 3.04589 10.1197 3.03316 10.1577 3.03246H11.8212L12.3321 1.42279C12.3433 1.38587 12.3659 1.35366 12.3966 1.33098C12.4274 1.30831 12.4644 1.29639 12.5024 1.29703C12.5403 1.29639 12.5774 1.30831 12.6081 1.33098C12.6388 1.35366 12.6614 1.38587 12.6727 1.42279L13.1836 3.03749H14.8446C14.8829 3.03767 14.9203 3.05016 14.9513 3.07318C14.9823 3.09621 15.0054 3.1286 15.0173 3.16577C15.0294 3.20249 15.0294 3.24223 15.0174 3.27898C15.0054 3.31572 14.982 3.34749 14.9507 3.36949L13.6056 4.36296L14.1214 5.97012C14.1331 6.00703 14.1333 6.04674 14.1218 6.08372C14.1103 6.1207 14.0877 6.15309 14.0573 6.17636C14.0261 6.19855 13.9891 6.21045 13.9511 6.21045C13.9132 6.21045 13.8761 6.19855 13.845 6.17636L12.5024 5.17032L11.1597 6.17636C11.1287 6.1988 11.0917 6.21108 11.0536 6.21158ZM10.7155 3.40219L11.7027 4.13912C11.7339 4.16181 11.7572 4.19403 11.7691 4.23112C11.7811 4.26821 11.7812 4.30823 11.7693 4.34536L11.4065 5.54507L12.3938 4.79053C12.4244 4.76726 12.4617 4.75469 12.4999 4.75469C12.5381 4.75469 12.5754 4.76726 12.606 4.79053L13.5933 5.53249L13.2082 4.3353C13.1964 4.29817 13.1964 4.25815 13.2084 4.22106C13.2204 4.18397 13.2437 4.15175 13.2749 4.12906L14.2769 3.39213H13.0429C13.0088 3.3901 12.976 3.37811 12.9484 3.3576C12.9208 3.33708 12.8997 3.3089 12.8874 3.27643L12.5024 2.07672L12.1223 3.27643C12.1108 3.31339 12.0882 3.34571 12.0576 3.36875C12.027 3.3918 11.99 3.40438 11.952 3.4047L10.7155 3.40219Z"/>
<path d="M8.07957 3.98318C8.05562 3.98324 8.03191 3.97838 8.00986 3.96887C7.9878 3.95936 7.96786 3.94541 7.95123 3.92785L5.38196 1.30961C5.35161 1.27502 5.33483 1.23025 5.33483 1.18385C5.33483 1.13745 5.35161 1.09268 5.38196 1.0581C5.41565 1.02663 5.45968 1.00918 5.50537 1.00918C5.55106 1.00918 5.59509 1.02663 5.62877 1.0581L8.19804 3.66879C8.22945 3.70284 8.24693 3.74781 8.24693 3.79455C8.24693 3.84128 8.22945 3.88625 8.19804 3.9203C8.18357 3.93849 8.16559 3.95345 8.14521 3.96427C8.12483 3.97508 8.10249 3.98152 8.07957 3.98318Z"/>
<path d="M5.23635 7.08935H5.18945L1.66751 6.12103C1.64091 6.11912 1.61505 6.11122 1.5918 6.09789C1.56856 6.08456 1.54851 6.06613 1.5331 6.04395C1.5177 6.02176 1.50731 5.99637 1.50271 5.96959C1.4981 5.94282 1.49938 5.91534 1.50647 5.88914C1.51355 5.86293 1.52625 5.83866 1.54365 5.81806C1.56106 5.79747 1.58273 5.78107 1.60711 5.77005C1.6315 5.75903 1.65797 5.75366 1.68464 5.75433C1.7113 5.75501 1.73748 5.76171 1.7613 5.77394L5.2709 6.73221C5.31007 6.74507 5.34375 6.77121 5.36632 6.80628C5.38889 6.84135 5.39899 6.88324 5.39495 6.92498C5.39092 6.96672 5.37298 7.00579 5.34412 7.03569C5.31526 7.0656 5.27723 7.08454 5.23635 7.08935Z"/>
<path d="M16.9252 3.98318C16.9015 3.9835 16.8781 3.97874 16.8564 3.96921C16.8347 3.95967 16.8153 3.94558 16.7993 3.92785C16.7673 3.89409 16.7494 3.84901 16.7494 3.80209C16.7494 3.75518 16.7673 3.71009 16.7993 3.67633L19.3661 1.04803C19.4 1.0171 19.444 1 19.4895 1C19.535 1 19.5789 1.0171 19.6129 1.04803C19.6432 1.08262 19.66 1.12739 19.66 1.17379C19.66 1.22019 19.6432 1.26496 19.6129 1.29955L17.0535 3.92785C17.037 3.94565 17.0171 3.95976 16.995 3.96928C16.9729 3.97881 16.9491 3.98354 16.9252 3.98318Z"/>
<path d="M19.7807 7.08935C19.7361 7.0907 19.6926 7.07513 19.6586 7.04567C19.6246 7.0162 19.6026 6.97493 19.5968 6.92985C19.5909 6.88476 19.6017 6.83908 19.627 6.80164C19.6523 6.7642 19.6904 6.73766 19.7338 6.72718L23.2533 5.77394C23.2769 5.76439 23.3022 5.76003 23.3275 5.76113C23.3529 5.76224 23.3777 5.76879 23.4004 5.78036C23.4231 5.79193 23.4432 5.80825 23.4592 5.82826C23.4753 5.84827 23.4871 5.87152 23.4937 5.89648C23.5004 5.92143 23.5018 5.94754 23.4978 5.97309C23.4939 5.99864 23.4847 6.02305 23.4708 6.04472C23.457 6.0664 23.4388 6.08485 23.4175 6.09886C23.3962 6.11288 23.3722 6.12215 23.3471 6.12606L19.8276 7.08181C19.8124 7.08675 19.7966 7.0893 19.7807 7.08935Z"/>
<path d="M18.7367 23H6.268C6.22022 23 6.17439 22.9807 6.1406 22.9462C6.10682 22.9118 6.08783 22.8651 6.08783 22.8164C6.08783 22.7677 6.10682 22.721 6.1406 22.6866C6.17439 22.6521 6.22022 22.6328 6.268 22.6328H18.7367C18.7845 22.6328 18.8303 22.6521 18.8641 22.6866C18.8979 22.721 18.9169 22.7677 18.9169 22.8164C18.9169 22.8651 18.8979 22.9118 18.8641 22.9462C18.8303 22.9807 18.7845 23 18.7367 23Z"/>
</mask>
<path d="M12.3321 23C12.3025 22.9998 12.2734 22.9924 12.2472 22.9784C12.221 22.9644 12.1985 22.9442 12.1815 22.9195L4.26639 10.9098C4.24356 10.8786 4.23122 10.8406 4.23122 10.8017C4.23122 10.7627 4.24356 10.7248 4.26639 10.6935L4.28367 10.6709C4.30076 10.6497 4.32224 10.6326 4.34656 10.6209C4.37088 10.6092 4.39744 10.603 4.42435 10.603H9.67888C9.71983 10.6026 9.75963 10.6167 9.79156 10.6428C9.82349 10.669 9.84559 10.7055 9.85412 10.7463L12.5073 22.7762C12.5169 22.8181 12.5115 22.8622 12.492 22.9005C12.4725 22.9387 12.4403 22.9687 12.4012 22.9849C12.3794 22.9947 12.3559 22.9998 12.3321 23ZM4.74273 10.9702L11.9495 21.9034L9.5382 10.9702H4.74273Z" fill="#0B1547"/>
<path d="M12.3321 23C12.2912 22.9999 12.2517 22.9856 12.2198 22.9596C12.188 22.9335 12.1658 22.8972 12.1568 22.8566L9.50612 10.8268C9.49997 10.7999 9.49988 10.7718 9.50587 10.7448C9.51185 10.7178 9.52375 10.6925 9.54067 10.6709C9.5575 10.65 9.57857 10.6331 9.60244 10.6214C9.62631 10.6097 9.65239 10.6034 9.67888 10.603H14.9803C15.0072 10.603 15.0338 10.6092 15.0581 10.6209C15.0824 10.6326 15.1039 10.6497 15.121 10.6709C15.1379 10.6925 15.1498 10.7178 15.1558 10.7448C15.1618 10.7718 15.1617 10.7999 15.1555 10.8268L12.5073 22.8566C12.4979 22.897 12.4756 22.9331 12.4439 22.959C12.4121 22.985 12.3728 22.9994 12.3321 23ZM9.90595 10.9702L12.3321 21.9789L14.7557 10.9702H9.90595Z" fill="#0B1547"/>
<path d="M12.3321 23C12.3067 22.9999 12.2815 22.9947 12.258 22.9849C12.2179 22.9696 12.1846 22.94 12.1642 22.9017C12.1438 22.8633 12.1377 22.8187 12.147 22.7762L14.8051 10.7463C14.814 10.7057 14.8362 10.6694 14.8681 10.6434C14.8999 10.6174 14.9395 10.6031 14.9803 10.603H20.5705C20.5954 10.6027 20.6202 10.6077 20.6431 10.6176C20.666 10.6276 20.6867 10.6423 20.7038 10.6608L20.7235 10.6835C20.7507 10.7144 20.767 10.7538 20.7696 10.7953C20.7723 10.8368 20.7613 10.878 20.7383 10.9123L12.4777 22.922C12.4614 22.946 12.4396 22.9656 12.4143 22.9792C12.3889 22.9928 12.3607 22.9999 12.3321 23ZM15.1259 10.9702L12.7072 21.9512L20.2595 10.9702H15.1259Z" fill="#0B1547"/>
<path d="M20.5705 10.9702H14.9803C14.9325 10.9702 14.8867 10.9508 14.8529 10.9164C14.8191 10.882 14.8001 10.8353 14.8001 10.7866V7.12456C14.8001 7.07587 14.8191 7.02917 14.8529 6.99474C14.8867 6.9603 14.9325 6.94096 14.9803 6.94096H17.3299C17.355 6.9413 17.3797 6.94683 17.4026 6.9572C17.4255 6.96758 17.4461 6.98259 17.4632 7.00132L20.7038 10.6633C20.7273 10.6893 20.7429 10.7217 20.7486 10.7565C20.7543 10.7914 20.7499 10.8272 20.7359 10.8595C20.7219 10.8924 20.6988 10.9204 20.6694 10.94C20.64 10.9597 20.6057 10.9702 20.5705 10.9702ZM15.1605 10.603H20.1657L17.2485 7.30817H15.1605V10.603Z" fill="#0B1547"/>
<path d="M14.9803 10.9702H9.67888C9.6311 10.9702 9.58527 10.9508 9.55148 10.9164C9.5177 10.882 9.49871 10.8353 9.49871 10.7866V7.12456C9.49871 7.07587 9.5177 7.02917 9.55148 6.99474C9.58527 6.9603 9.6311 6.94096 9.67888 6.94096H14.9803C15.0281 6.94096 15.0739 6.9603 15.1077 6.99474C15.1415 7.02917 15.1605 7.07587 15.1605 7.12456V10.7866C15.1605 10.8353 15.1415 10.882 15.1077 10.9164C15.0739 10.9508 15.0281 10.9702 14.9803 10.9702ZM9.86152 10.603H14.7977V7.30817H9.86152V10.603Z" fill="#0B1547"/>
<path d="M9.67888 10.9702H4.43176C4.39757 10.9701 4.3641 10.9602 4.33525 10.9415C4.30641 10.9228 4.28338 10.8961 4.26886 10.8645C4.25463 10.8333 4.24917 10.7987 4.25309 10.7645C4.25701 10.7303 4.27016 10.6979 4.29108 10.6709L7.19353 7.00887C7.21062 6.98769 7.2321 6.97062 7.25642 6.95888C7.28074 6.94714 7.3073 6.94102 7.33421 6.94096H9.67888C9.72667 6.94096 9.7725 6.9603 9.80628 6.99474C9.84007 7.02917 9.85905 7.07587 9.85905 7.12456V10.7866C9.85905 10.8353 9.84007 10.882 9.80628 10.9164C9.7725 10.9508 9.72667 10.9702 9.67888 10.9702ZM4.80937 10.603H9.49871V7.30817H7.41813L4.80937 10.603Z" fill="#0B1547"/>
<path d="M11.0536 6.21158C11.0155 6.21108 10.9785 6.1988 10.9475 6.17636C10.917 6.15309 10.8945 6.1207 10.883 6.08372C10.8715 6.04674 10.8716 6.00703 10.8833 5.97012L11.4065 4.35793L10.054 3.36446C10.0227 3.34246 9.99932 3.31069 9.9873 3.27395C9.97528 3.2372 9.97532 3.19746 9.98739 3.16074C9.99918 3.12397 10.0219 3.09187 10.0524 3.06888C10.083 3.04589 10.1197 3.03316 10.1577 3.03246H11.8212L12.3321 1.42279C12.3433 1.38587 12.3659 1.35366 12.3966 1.33098C12.4274 1.30831 12.4644 1.29639 12.5024 1.29703C12.5403 1.29639 12.5774 1.30831 12.6081 1.33098C12.6388 1.35366 12.6614 1.38587 12.6727 1.42279L13.1836 3.03749H14.8446C14.8829 3.03767 14.9203 3.05016 14.9513 3.07318C14.9823 3.09621 15.0054 3.1286 15.0173 3.16577C15.0294 3.20249 15.0294 3.24223 15.0174 3.27898C15.0054 3.31572 14.982 3.34749 14.9507 3.36949L13.6056 4.36296L14.1214 5.97012C14.1331 6.00703 14.1333 6.04674 14.1218 6.08372C14.1103 6.1207 14.0877 6.15309 14.0573 6.17636C14.0261 6.19855 13.9891 6.21045 13.9511 6.21045C13.9132 6.21045 13.8761 6.19855 13.845 6.17636L12.5024 5.17032L11.1597 6.17636C11.1287 6.1988 11.0917 6.21108 11.0536 6.21158ZM10.7155 3.40219L11.7027 4.13912C11.7339 4.16181 11.7572 4.19403 11.7691 4.23112C11.7811 4.26821 11.7812 4.30823 11.7693 4.34536L11.4065 5.54507L12.3938 4.79053C12.4244 4.76726 12.4617 4.75469 12.4999 4.75469C12.5381 4.75469 12.5754 4.76726 12.606 4.79053L13.5933 5.53249L13.2082 4.3353C13.1964 4.29817 13.1964 4.25815 13.2084 4.22106C13.2204 4.18397 13.2437 4.15175 13.2749 4.12906L14.2769 3.39213H13.0429C13.0088 3.3901 12.976 3.37811 12.9484 3.3576C12.9208 3.33708 12.8997 3.3089 12.8874 3.27643L12.5024 2.07672L12.1223 3.27643C12.1108 3.31339 12.0882 3.34571 12.0576 3.36875C12.027 3.3918 11.99 3.40438 11.952 3.4047L10.7155 3.40219Z" fill="#0B1547"/>
<path d="M8.07957 3.98318C8.05562 3.98324 8.03191 3.97838 8.00986 3.96887C7.9878 3.95936 7.96786 3.94541 7.95123 3.92785L5.38196 1.30961C5.35161 1.27502 5.33483 1.23025 5.33483 1.18385C5.33483 1.13745 5.35161 1.09268 5.38196 1.0581C5.41565 1.02663 5.45968 1.00918 5.50537 1.00918C5.55106 1.00918 5.59509 1.02663 5.62877 1.0581L8.19804 3.66879C8.22945 3.70284 8.24693 3.74781 8.24693 3.79455C8.24693 3.84128 8.22945 3.88625 8.19804 3.9203C8.18357 3.93849 8.16559 3.95345 8.14521 3.96427C8.12483 3.97508 8.10249 3.98152 8.07957 3.98318Z" fill="#0B1547"/>
<path d="M5.23635 7.08935H5.18945L1.66751 6.12103C1.64091 6.11912 1.61505 6.11122 1.5918 6.09789C1.56856 6.08456 1.54851 6.06613 1.5331 6.04395C1.5177 6.02176 1.50731 5.99637 1.50271 5.96959C1.4981 5.94282 1.49938 5.91534 1.50647 5.88914C1.51355 5.86293 1.52625 5.83866 1.54365 5.81806C1.56106 5.79747 1.58273 5.78107 1.60711 5.77005C1.6315 5.75903 1.65797 5.75366 1.68464 5.75433C1.7113 5.75501 1.73748 5.76171 1.7613 5.77394L5.2709 6.73221C5.31007 6.74507 5.34375 6.77121 5.36632 6.80628C5.38889 6.84135 5.39899 6.88324 5.39495 6.92498C5.39092 6.96672 5.37298 7.00579 5.34412 7.03569C5.31526 7.0656 5.27723 7.08454 5.23635 7.08935Z" fill="#0B1547"/>
<path d="M16.9252 3.98318C16.9015 3.9835 16.8781 3.97874 16.8564 3.96921C16.8347 3.95967 16.8153 3.94558 16.7993 3.92785C16.7673 3.89409 16.7494 3.84901 16.7494 3.80209C16.7494 3.75518 16.7673 3.71009 16.7993 3.67633L19.3661 1.04803C19.4 1.0171 19.444 1 19.4895 1C19.535 1 19.5789 1.0171 19.6129 1.04803C19.6432 1.08262 19.66 1.12739 19.66 1.17379C19.66 1.22019 19.6432 1.26496 19.6129 1.29955L17.0535 3.92785C17.037 3.94565 17.0171 3.95976 16.995 3.96928C16.9729 3.97881 16.9491 3.98354 16.9252 3.98318Z" fill="#0B1547"/>
<path d="M19.7807 7.08935C19.7361 7.0907 19.6926 7.07513 19.6586 7.04567C19.6246 7.0162 19.6026 6.97493 19.5968 6.92985C19.5909 6.88476 19.6017 6.83908 19.627 6.80164C19.6523 6.7642 19.6904 6.73766 19.7338 6.72718L23.2533 5.77394C23.2769 5.76439 23.3022 5.76003 23.3275 5.76113C23.3529 5.76224 23.3777 5.76879 23.4004 5.78036C23.4231 5.79193 23.4432 5.80825 23.4592 5.82826C23.4753 5.84827 23.4871 5.87152 23.4937 5.89648C23.5004 5.92143 23.5018 5.94754 23.4978 5.97309C23.4939 5.99864 23.4847 6.02305 23.4708 6.04472C23.457 6.0664 23.4388 6.08485 23.4175 6.09886C23.3962 6.11288 23.3722 6.12215 23.3471 6.12606L19.8276 7.08181C19.8124 7.08675 19.7966 7.0893 19.7807 7.08935Z" fill="#0B1547"/>
<path d="M18.7367 23H6.268C6.22022 23 6.17439 22.9807 6.1406 22.9462C6.10682 22.9118 6.08783 22.8651 6.08783 22.8164C6.08783 22.7677 6.10682 22.721 6.1406 22.6866C6.17439 22.6521 6.22022 22.6328 6.268 22.6328H18.7367C18.7845 22.6328 18.8303 22.6521 18.8641 22.6866C18.8979 22.721 18.9169 22.7677 18.9169 22.8164C18.9169 22.8651 18.8979 22.9118 18.8641 22.9462C18.8303 22.9807 18.7845 23 18.7367 23Z" fill="#0B1547"/>
<path d="M12.3321 23L12.3314 23.2L12.3326 23.2L12.3321 23ZM12.1815 22.9195L12.0145 23.0296L12.0166 23.0327L12.1815 22.9195ZM4.26639 10.9098L4.43358 10.7996L4.42788 10.7918L4.26639 10.9098ZM4.26639 10.6935L4.10737 10.5722L4.10491 10.5755L4.26639 10.6935ZM4.28367 10.6709L4.12797 10.5452L4.12469 10.5495L4.28367 10.6709ZM4.42435 10.603V10.403L4.42392 10.403L4.42435 10.603ZM9.85412 10.7463L9.65833 10.7873L9.65881 10.7894L9.85412 10.7463ZM12.5073 22.7762L12.312 22.8192L12.3123 22.8206L12.5073 22.7762ZM12.4012 22.9849L12.3246 22.8001L12.3194 22.8024L12.4012 22.9849ZM4.74273 10.9702V10.7702H4.37136L4.57575 11.0803L4.74273 10.9702ZM11.9495 21.9034L11.7825 22.0135L12.1448 21.8603L11.9495 21.9034ZM9.5382 10.9702L9.73351 10.9271L9.6989 10.7702H9.5382V10.9702ZM12.1568 22.8566L11.9615 22.8997L11.9615 22.8997L12.1568 22.8566ZM9.50612 10.8268L9.70144 10.7838L9.70111 10.7824L9.50612 10.8268ZM9.54067 10.6709L9.38498 10.5453L9.38308 10.5477L9.54067 10.6709ZM15.121 10.6709L15.2786 10.5477L15.2766 10.5453L15.121 10.6709ZM15.1555 10.8268L14.9605 10.7824L14.9602 10.7838L15.1555 10.8268ZM12.5073 22.8566L12.7022 22.9018L12.7026 22.8996L12.5073 22.8566ZM9.90595 10.9702V10.7702H9.65707L9.71063 11.0132L9.90595 10.9702ZM12.3321 21.9789L12.1368 22.0219L12.5274 22.0219L12.3321 21.9789ZM14.7557 10.9702L14.951 11.0132L15.0045 10.7702H14.7557V10.9702ZM12.258 22.9849L12.3353 22.8003L12.3294 22.7981L12.258 22.9849ZM12.147 22.7762L11.9517 22.733L11.9515 22.7336L12.147 22.7762ZM14.8051 10.7463L15.0004 10.7895L15.0004 10.7894L14.8051 10.7463ZM20.5705 10.603V10.803L20.5728 10.803L20.5705 10.603ZM20.7038 10.6608L20.8545 10.5293L20.8508 10.5252L20.7038 10.6608ZM20.7235 10.6835L20.5728 10.8149L20.5732 10.8154L20.7235 10.6835ZM20.7383 10.9123L20.9031 11.0257L20.9046 11.0235L20.7383 10.9123ZM12.4777 22.922L12.3129 22.8087L12.3123 22.8096L12.4777 22.922ZM15.1259 10.9702V10.7702H14.9652L14.9306 10.9272L15.1259 10.9702ZM12.7072 21.9512L12.5119 21.9082L12.872 22.0645L12.7072 21.9512ZM20.2595 10.9702L20.4243 11.0835L20.6398 10.7702H20.2595V10.9702ZM20.5705 10.9702L20.5705 10.7702H20.5705V10.9702ZM17.3299 6.94096L17.3326 6.74096H17.3299V6.94096ZM17.4632 7.00132L17.613 6.86877L17.6111 6.86673L17.4632 7.00132ZM20.7038 10.6633L20.554 10.7959L20.5557 10.7978L20.7038 10.6633ZM20.7359 10.8595L20.5524 10.7799L20.5518 10.7813L20.7359 10.8595ZM15.1605 10.603H14.9605V10.803H15.1605V10.603ZM20.1657 10.603V10.803H20.6099L20.3155 10.4704L20.1657 10.603ZM17.2485 7.30817L17.3982 7.17559L17.3385 7.10817H17.2485V7.30817ZM15.1605 7.30817V7.10817H14.9605V7.30817H15.1605ZM9.49871 7.12456H9.69871H9.49871ZM15.1605 10.7866H15.3605H15.1605ZM9.86152 10.603H9.66152V10.803H9.86152V10.603ZM14.7977 10.603V10.803H14.9977V10.603H14.7977ZM14.7977 7.30817H14.9977V7.10817H14.7977V7.30817ZM9.86152 7.30817V7.10817H9.66152V7.30817H9.86152ZM4.43176 10.9702L4.4315 11.1702H4.43176V10.9702ZM4.26886 10.8645L4.08688 10.9475L4.08718 10.9482L4.26886 10.8645ZM4.29108 10.6709L4.13433 10.5466L4.13289 10.5485L4.29108 10.6709ZM7.19353 7.00887L7.03788 6.88327L7.03679 6.88464L7.19353 7.00887ZM7.33421 6.94096V6.74096L7.33378 6.74096L7.33421 6.94096ZM9.85905 10.7866H10.0591H9.85905ZM4.80937 10.603L4.65257 10.4788L4.39591 10.803H4.80937V10.603ZM9.49871 10.603V10.803H9.69871V10.603H9.49871ZM9.49871 7.30817H9.69871V7.10817H9.49871V7.30817ZM7.41813 7.30817V7.10817H7.32138L7.26133 7.18402L7.41813 7.30817ZM11.0536 6.21158L11.051 6.41163L11.0562 6.41156L11.0536 6.21158ZM10.9475 6.17636L10.826 6.33532L10.8303 6.33847L10.9475 6.17636ZM10.8833 5.97012L10.6931 5.90838L10.6927 5.90955L10.8833 5.97012ZM11.4065 4.35793L11.5968 4.41967L11.6414 4.28227L11.5249 4.19674L11.4065 4.35793ZM10.054 3.36446L10.1725 3.20324L10.1691 3.20085L10.054 3.36446ZM9.98739 3.16074L10.1774 3.22321L10.1778 3.22181L9.98739 3.16074ZM10.1577 3.03246V2.83243L10.154 2.8325L10.1577 3.03246ZM11.8212 3.03246V3.23246H11.9675L12.0118 3.09297L11.8212 3.03246ZM12.3321 1.42279L12.5227 1.4833L12.5234 1.4809L12.3321 1.42279ZM12.5024 1.29703L12.499 1.49712L12.5057 1.497L12.5024 1.29703ZM12.6727 1.42279L12.4813 1.48091L12.482 1.48312L12.6727 1.42279ZM13.1836 3.03749L12.9929 3.09783L13.0371 3.23749H13.1836V3.03749ZM14.8446 3.03749L14.8455 2.83749H14.8446V3.03749ZM15.0173 3.16577L14.8269 3.22687L14.8273 3.22824L15.0173 3.16577ZM14.9507 3.36949L14.8356 3.20584L14.8319 3.20861L14.9507 3.36949ZM13.6056 4.36296L13.4868 4.20209L13.3713 4.28738L13.4152 4.42408L13.6056 4.36296ZM14.1214 5.97012L14.312 5.90955L14.3119 5.909L14.1214 5.97012ZM14.0573 6.17636L14.1734 6.33929L14.1787 6.33527L14.0573 6.17636ZM13.845 6.17636L13.725 6.33646L13.7289 6.3392L13.845 6.17636ZM12.5024 5.17032L12.6223 5.01026L12.5024 4.9204L12.3824 5.01026L12.5024 5.17032ZM11.1597 6.17636L11.2769 6.33849L11.2797 6.33642L11.1597 6.17636ZM10.7155 3.40219L10.7159 3.20219L10.1116 3.20096L10.5958 3.56246L10.7155 3.40219ZM11.7027 4.13912L11.5831 4.2994L11.585 4.30084L11.7027 4.13912ZM11.7693 4.34536L11.5788 4.28451L11.5779 4.28746L11.7693 4.34536ZM11.4065 5.54507L11.2151 5.48718L11.0358 6.08017L11.528 5.70397L11.4065 5.54507ZM12.3938 4.79053L12.2729 4.63121L12.2723 4.63163L12.3938 4.79053ZM12.606 4.79053L12.4851 4.94986L12.4859 4.95041L12.606 4.79053ZM13.5933 5.53249L13.4731 5.69237L13.9764 6.07065L13.7836 5.47126L13.5933 5.53249ZM13.2082 4.3353L13.0177 4.39613L13.0178 4.39653L13.2082 4.3353ZM13.2749 4.12906L13.3925 4.29078L13.3934 4.29018L13.2749 4.12906ZM14.2769 3.39213L14.3954 3.55325L14.8864 3.19213H14.2769V3.39213ZM13.0429 3.39213L13.031 3.59213H13.0429V3.39213ZM12.8874 3.27643L12.6967 3.33763L12.7003 3.34714L12.8874 3.27643ZM12.5024 2.07672L12.6928 2.0156L12.5011 1.41839L12.3117 2.01632L12.5024 2.07672ZM12.1223 3.27643L11.9316 3.21603L11.9313 3.21719L12.1223 3.27643ZM11.952 3.4047L11.9516 3.60471L11.9537 3.60469L11.952 3.4047ZM8.07957 3.98318L8.08012 4.18366L8.09401 4.18266L8.07957 3.98318ZM7.95123 3.92785L8.09647 3.7903L8.09398 3.78777L7.95123 3.92785ZM5.38196 1.30961L5.23142 1.44174L5.23921 1.44969L5.38196 1.30961ZM5.38196 1.0581L5.24545 0.911934L5.2382 0.918707L5.23165 0.926165L5.38196 1.0581ZM5.62877 1.0581L5.77145 0.917685L5.76529 0.911934L5.62877 1.0581ZM8.19804 3.66879L8.34512 3.53311L8.34059 3.5285L8.19804 3.66879ZM8.19804 3.9203L8.05103 3.78469L8.04608 3.79006L8.04154 3.79577L8.19804 3.9203ZM5.23635 7.08935V7.28935H5.24809L5.25975 7.28798L5.23635 7.08935ZM5.18945 7.08935L5.13643 7.2822L5.16246 7.28935H5.18945V7.08935ZM1.66751 6.12103L1.72053 5.92819L1.70151 5.92296L1.68183 5.92154L1.66751 6.12103ZM1.7613 5.77394L1.66988 5.95183L1.68846 5.96138L1.70862 5.96688L1.7613 5.77394ZM5.2709 6.73221L5.33337 6.54194L5.32358 6.53927L5.2709 6.73221ZM16.9252 3.98318L16.9282 3.78312L16.9224 3.7832L16.9252 3.98318ZM16.7993 3.92785L16.9479 3.79392L16.9445 3.79032L16.7993 3.92785ZM16.7494 3.80209H16.9494H16.7494ZM16.7993 3.67633L16.6562 3.53658L16.6541 3.53881L16.7993 3.67633ZM19.3661 1.04803L19.2311 0.899972L19.223 0.908297L19.3661 1.04803ZM19.4895 1V0.8V1ZM19.6129 1.04803L19.7632 0.916104L19.7558 0.907729L19.7476 0.900222L19.6129 1.04803ZM19.6129 1.29955L19.7564 1.43926L19.7632 1.43148L19.6129 1.29955ZM17.0535 3.92785L16.9102 3.78827L16.9066 3.7921L17.0535 3.92785ZM19.7807 7.08935L19.78 6.88928L19.7747 6.88944L19.7807 7.08935ZM19.7338 6.72718L19.7808 6.92166L19.7861 6.92022L19.7338 6.72718ZM23.2533 5.77394L23.3056 5.96699L23.3172 5.96384L23.3284 5.95932L23.2533 5.77394ZM23.3471 6.12606L23.3163 5.92845L23.3053 5.93015L23.2947 5.93305L23.3471 6.12606ZM19.8276 7.08181L19.7751 6.88855L19.7656 6.89167L19.8276 7.08181ZM18.7367 22.6328V22.8328V22.6328ZM12.3333 22.8C12.3363 22.8 12.3391 22.8008 12.3415 22.802L12.1529 23.1548C12.2076 23.184 12.2686 23.1996 12.3308 23.2L12.3333 22.8ZM12.3415 22.802C12.3438 22.8033 12.3454 22.8048 12.3464 22.8063L12.0166 23.0327C12.0516 23.0836 12.0982 23.1256 12.1529 23.1548L12.3415 22.802ZM12.3485 22.8095L4.43339 10.7998L4.0994 11.0199L12.0145 23.0296L12.3485 22.8095ZM4.42788 10.7918C4.43025 10.7951 4.43122 10.7985 4.43122 10.8017H4.03122C4.03122 10.8828 4.05687 10.9621 4.10491 11.0278L4.42788 10.7918ZM4.43122 10.8017C4.43122 10.8048 4.43025 10.8083 4.42788 10.8115L4.10491 10.5755C4.05687 10.6413 4.03122 10.7206 4.03122 10.8017H4.43122ZM4.42538 10.8149L4.44266 10.7922L4.12469 10.5495L4.10741 10.5722L4.42538 10.8149ZM4.43932 10.7965C4.43798 10.7981 4.43605 10.7998 4.4335 10.801L4.25961 10.4408C4.20842 10.4655 4.16355 10.5013 4.12802 10.5453L4.43932 10.7965ZM4.4335 10.801C4.43094 10.8022 4.42795 10.803 4.42479 10.803L4.42392 10.403C4.36693 10.4031 4.31082 10.4161 4.25961 10.4408L4.4335 10.801ZM4.42435 10.803H9.67888V10.403H4.42435V10.803ZM9.68052 10.803C9.67436 10.803 9.66886 10.8009 9.66492 10.7976L9.9182 10.4881C9.8504 10.4326 9.7653 10.4023 9.67724 10.403L9.68052 10.803ZM9.66492 10.7976C9.66106 10.7945 9.65906 10.7907 9.65835 10.7873L10.0499 10.7054C10.0321 10.6204 9.98592 10.5435 9.9182 10.4881L9.66492 10.7976ZM9.65881 10.7894L12.312 22.8192L12.7026 22.7331L10.0494 10.7033L9.65881 10.7894ZM12.3123 22.8206C12.3115 22.8172 12.3119 22.8134 12.3137 22.8098L12.6703 22.9911C12.711 22.911 12.7222 22.8191 12.7023 22.7317L12.3123 22.8206ZM12.3137 22.8098C12.3156 22.8062 12.3191 22.8024 12.3246 22.8002L12.4778 23.1697C12.5615 23.1349 12.6295 23.0713 12.6703 22.9911L12.3137 22.8098ZM12.3194 22.8024C12.3228 22.8009 12.3265 22.8 12.3304 22.8L12.3337 23.2C12.3852 23.1996 12.436 23.1885 12.4829 23.1674L12.3194 22.8024ZM4.57575 11.0803L11.7825 22.0135L12.1165 21.7933L4.90972 10.8601L4.57575 11.0803ZM12.1448 21.8603L9.73351 10.9271L9.3429 11.0133L11.7542 21.9465L12.1448 21.8603ZM9.5382 10.7702H4.74273V11.1702H9.5382V10.7702ZM12.3327 22.8C12.3382 22.8 12.343 22.802 12.3465 22.8048L12.0932 23.1144C12.1603 23.1693 12.2443 23.1997 12.3314 23.2L12.3327 22.8ZM12.3465 22.8048C12.3498 22.8075 12.3515 22.8108 12.3521 22.8136L11.9615 22.8997C11.98 22.9837 12.0262 23.0595 12.0932 23.1144L12.3465 22.8048ZM12.3521 22.8136L9.70143 10.7838L9.3108 10.8699L11.9615 22.8997L12.3521 22.8136ZM9.70111 10.7824C9.70155 10.7843 9.70155 10.7862 9.70113 10.7881L9.3106 10.7016C9.29822 10.7575 9.29839 10.8155 9.31112 10.8713L9.70111 10.7824ZM9.70113 10.7881C9.70071 10.79 9.69981 10.792 9.69826 10.794L9.38308 10.5477C9.34768 10.593 9.32299 10.6456 9.3106 10.7016L9.70113 10.7881ZM9.69634 10.7965C9.69502 10.7981 9.69313 10.7997 9.69064 10.8009L9.51424 10.4419C9.46401 10.4666 9.41997 10.502 9.385 10.5453L9.69634 10.7965ZM9.69064 10.8009C9.68813 10.8022 9.6852 10.8029 9.68209 10.8029L9.67567 10.403C9.61958 10.4039 9.56449 10.4172 9.51424 10.4419L9.69064 10.8009ZM9.67888 10.803H14.9803V10.403H9.67888V10.803ZM14.9799 10.803C14.9767 10.803 14.9737 10.8022 14.9712 10.801L15.145 10.4408C15.0938 10.4161 15.0377 10.4031 14.9807 10.403L14.9799 10.803ZM14.9712 10.801C14.9686 10.7998 14.9667 10.7981 14.9653 10.7965L15.2766 10.5453C15.2411 10.5013 15.1962 10.4655 15.145 10.4408L14.9712 10.801ZM14.9634 10.794C14.9619 10.7921 14.961 10.79 14.9605 10.7881L15.3511 10.7016C15.3387 10.6456 15.314 10.593 15.2786 10.5477L14.9634 10.794ZM14.9605 10.7881C14.9601 10.7862 14.9601 10.7843 14.9605 10.7824L15.3505 10.8713C15.3633 10.8155 15.3634 10.7575 15.3511 10.7016L14.9605 10.7881ZM14.9602 10.7838L12.312 22.8136L12.7026 22.8996L15.3509 10.8698L14.9602 10.7838ZM12.3125 22.8115C12.313 22.8093 12.3144 22.8066 12.3172 22.8042L12.5705 23.1138C12.6369 23.0595 12.6829 22.9847 12.7021 22.9017L12.3125 22.8115ZM12.3172 22.8042C12.3202 22.8018 12.3244 22.8001 12.3292 22.8L12.3349 23.2C12.4212 23.1988 12.5041 23.1682 12.5705 23.1138L12.3172 22.8042ZM9.71063 11.0132L12.1368 22.0219L12.5274 21.9358L10.1013 10.9271L9.71063 11.0132ZM12.5274 22.0219L14.951 11.0132L14.5604 10.9272L12.1367 21.9359L12.5274 22.0219ZM14.7557 10.7702H9.90595V11.1702H14.7557V10.7702ZM12.3331 22.8C12.3339 22.8 12.3347 22.8002 12.3353 22.8004L12.1808 23.1694C12.2284 23.1893 12.2794 23.1997 12.331 23.2L12.3331 22.8ZM12.3294 22.7981C12.3351 22.8003 12.3388 22.804 12.3408 22.8077L11.9877 22.9956C12.0304 23.076 12.1008 23.1389 12.1866 23.1717L12.3294 22.7981ZM12.3408 22.8077C12.3427 22.8114 12.3432 22.8152 12.3424 22.8187L11.9515 22.7336C11.9322 22.8223 11.9449 22.9153 11.9877 22.9956L12.3408 22.8077ZM12.3422 22.8193L15.0004 10.7895L14.6098 10.7032L11.9517 22.733L12.3422 22.8193ZM15.0004 10.7894C14.9998 10.7922 14.9981 10.7955 14.9947 10.7982L14.7414 10.4886C14.6744 10.5434 14.6283 10.6193 14.6098 10.7033L15.0004 10.7894ZM14.9947 10.7982C14.9913 10.801 14.9864 10.803 14.9809 10.803L14.9797 10.403C14.8925 10.4032 14.8085 10.4337 14.7414 10.4886L14.9947 10.7982ZM14.9803 10.803H20.5705V10.403H14.9803V10.803ZM20.5728 10.803C20.5694 10.803 20.5663 10.8023 20.5635 10.8011L20.7227 10.4342C20.674 10.4131 20.6214 10.4024 20.5682 10.403L20.5728 10.803ZM20.5635 10.8011C20.5607 10.7999 20.5584 10.7982 20.5568 10.7964L20.8508 10.5252C20.815 10.4864 20.7714 10.4553 20.7227 10.4342L20.5635 10.8011ZM20.5531 10.7923L20.5728 10.8149L20.8742 10.552L20.8545 10.5293L20.5531 10.7923ZM20.5732 10.8154C20.571 10.8129 20.5702 10.8104 20.5701 10.8082L20.9692 10.7824C20.9637 10.6973 20.9304 10.616 20.8738 10.5515L20.5732 10.8154ZM20.5701 10.8082C20.5699 10.8061 20.5704 10.8036 20.5721 10.8012L20.9046 11.0235C20.9522 10.9523 20.9747 10.8675 20.9692 10.7824L20.5701 10.8082ZM20.5735 10.799L12.3129 22.8087L12.6425 23.0354L20.9031 11.0257L20.5735 10.799ZM12.3123 22.8096C12.314 22.8071 12.3165 22.8047 12.3199 22.8029L12.5087 23.1555C12.5628 23.1266 12.6088 23.0849 12.6431 23.0345L12.3123 22.8096ZM12.3199 22.8029C12.3233 22.8011 12.3273 22.8 12.3315 22.8L12.3326 23.2C12.3941 23.1998 12.4546 23.1845 12.5087 23.1555L12.3199 22.8029ZM14.9306 10.9272L12.5119 21.9082L12.9025 21.9942L15.3212 11.0132L14.9306 10.9272ZM12.872 22.0645L20.4243 11.0835L20.0947 10.8568L12.5424 21.8379L12.872 22.0645ZM20.2595 10.7702H15.1259V11.1702H20.2595V10.7702ZM20.5705 10.7702H14.9803V11.1702H20.5705V10.7702ZM14.9803 10.7702C14.9868 10.7702 14.9922 10.7728 14.9957 10.7763L14.7102 11.0565C14.7812 11.1288 14.8783 11.1702 14.9803 11.1702V10.7702ZM14.9957 10.7763C14.9989 10.7797 15.0001 10.7834 15.0001 10.7866H14.6001C14.6001 10.8871 14.6393 10.9843 14.7102 11.0565L14.9957 10.7763ZM15.0001 10.7866V7.12456H14.6001V10.7866H15.0001ZM15.0001 7.12456C15.0001 7.12771 14.999 7.13146 14.9957 7.13482L14.7102 6.85466C14.6393 6.92687 14.6001 7.02403 14.6001 7.12456H15.0001ZM14.9957 7.13482C14.9922 7.1383 14.9868 7.14096 14.9803 7.14096V6.74096C14.8783 6.74096 14.7812 6.78231 14.7102 6.85466L14.9957 7.13482ZM14.9803 7.14096H17.3299V6.74096H14.9803V7.14096ZM17.3272 7.14094C17.3246 7.14091 17.3222 7.14034 17.3201 7.13939L17.4851 6.77502C17.4372 6.75331 17.3853 6.74169 17.3326 6.74098L17.3272 7.14094ZM17.3201 7.13939C17.318 7.13844 17.3164 7.13719 17.3153 7.13592L17.6111 6.86673C17.5759 6.82798 17.5331 6.79671 17.4851 6.77502L17.3201 7.13939ZM17.3134 7.13386L20.554 10.7959L20.8536 10.5308L17.613 6.86878L17.3134 7.13386ZM20.5557 10.7978C20.5531 10.7949 20.5517 10.7917 20.5512 10.7888L20.946 10.7243C20.9341 10.6516 20.9016 10.5837 20.8519 10.5289L20.5557 10.7978ZM20.5512 10.7888C20.5508 10.7859 20.5511 10.7829 20.5524 10.7799L20.9193 10.9391C20.9487 10.8715 20.9579 10.7969 20.946 10.7243L20.5512 10.7888ZM20.5518 10.7813C20.5529 10.7788 20.5549 10.776 20.5582 10.7738L20.7807 11.1063C20.8427 11.0647 20.8909 11.006 20.9199 10.9377L20.5518 10.7813ZM20.5582 10.7738C20.5615 10.7716 20.5658 10.7702 20.5705 10.7702L20.5705 11.1702C20.6455 11.1702 20.7186 11.1478 20.7807 11.1063L20.5582 10.7738ZM15.1605 10.803H20.1657V10.403H15.1605V10.803ZM20.3155 10.4704L17.3982 7.17559L17.0987 7.44075L20.016 10.7356L20.3155 10.4704ZM17.2485 7.10817H15.1605V7.50817H17.2485V7.10817ZM14.9605 7.30817V10.603H15.3605V7.30817H14.9605ZM14.9803 10.7702H9.67888V11.1702H14.9803V10.7702ZM9.67888 10.7702C9.68538 10.7702 9.69082 10.7728 9.69423 10.7763L9.40873 11.0565C9.47973 11.1288 9.57682 11.1702 9.67888 11.1702V10.7702ZM9.69423 10.7763C9.69752 10.7797 9.69871 10.7834 9.69871 10.7866H9.29871C9.29871 10.8871 9.33787 10.9843 9.40873 11.0565L9.69423 10.7763ZM9.69871 10.7866V7.12456H9.29871V10.7866H9.69871ZM9.69871 7.12456C9.69871 7.12771 9.69753 7.13146 9.69423 7.13482L9.40873 6.85466C9.33787 6.92687 9.29871 7.02403 9.29871 7.12456H9.69871ZM9.69423 7.13482C9.69082 7.1383 9.68537 7.14096 9.67888 7.14096V6.74096C9.57683 6.74096 9.47973 6.78231 9.40873 6.85466L9.69423 7.13482ZM9.67888 7.14096H14.9803V6.74096H9.67888V7.14096ZM14.9803 7.14096C14.9738 7.14096 14.9684 7.1383 14.965 7.13482L15.2505 6.85466C15.1795 6.78231 15.0824 6.74096 14.9803 6.74096V7.14096ZM14.965 7.13482C14.9617 7.13146 14.9605 7.1277 14.9605 7.12456H15.3605C15.3605 7.02403 15.3213 6.92688 15.2505 6.85466L14.965 7.13482ZM14.9605 7.12456V10.7866H15.3605V7.12456H14.9605ZM14.9605 10.7866C14.9605 10.7834 14.9617 10.7797 14.965 10.7763L15.2505 11.0565C15.3213 10.9843 15.3605 10.8871 15.3605 10.7866H14.9605ZM14.965 10.7763C14.9684 10.7728 14.9738 10.7702 14.9803 10.7702V11.1702C15.0824 11.1702 15.1795 11.1288 15.2505 11.0565L14.965 10.7763ZM9.86152 10.803H14.7977V10.403H9.86152V10.803ZM14.9977 10.603V7.30817H14.5977V10.603H14.9977ZM14.7977 7.10817H9.86152V7.50817H14.7977V7.10817ZM9.66152 7.30817V10.603H10.0615V7.30817H9.66152ZM9.67888 10.7702H4.43176V11.1702H9.67888V10.7702ZM4.43201 10.7702C4.43658 10.7702 4.44077 10.7715 4.44407 10.7737L4.22643 11.1093C4.28742 11.1488 4.35855 11.1701 4.4315 11.1702L4.43201 10.7702ZM4.44407 10.7737C4.44733 10.7758 4.4494 10.7784 4.45054 10.7809L4.08718 10.9482C4.11736 11.0137 4.16549 11.0698 4.22643 11.1093L4.44407 10.7737ZM4.45084 10.7816C4.45174 10.7835 4.452 10.7855 4.45179 10.7873L4.05439 10.7417C4.04634 10.8119 4.05752 10.8831 4.08689 10.9475L4.45084 10.7816ZM4.45179 10.7873C4.45158 10.7891 4.45085 10.7912 4.44926 10.7933L4.13289 10.5485C4.08947 10.6046 4.06245 10.6715 4.05439 10.7417L4.45179 10.7873ZM4.44781 10.7951L7.35027 7.1331L7.03679 6.88464L4.13434 10.5467L4.44781 10.7951ZM7.34918 7.13446C7.34784 7.13613 7.34591 7.13776 7.34336 7.13899L7.16947 6.77876C7.11828 6.80347 7.07341 6.83925 7.03788 6.88328L7.34918 7.13446ZM7.34336 7.13899C7.3408 7.14023 7.33781 7.14095 7.33465 7.14096L7.33378 6.74096C7.2768 6.74108 7.22068 6.75405 7.16947 6.77876L7.34336 7.13899ZM7.33421 7.14096H9.67888V6.74096H7.33421V7.14096ZM9.67888 7.14096C9.67239 7.14096 9.66695 7.1383 9.66353 7.13482L9.94903 6.85466C9.87804 6.78231 9.78094 6.74096 9.67888 6.74096V7.14096ZM9.66353 7.13482C9.66024 7.13146 9.65905 7.12771 9.65905 7.12456H10.0591C10.0591 7.02403 10.0199 6.92687 9.94903 6.85466L9.66353 7.13482ZM9.65905 7.12456V10.7866H10.0591V7.12456H9.65905ZM9.65905 10.7866C9.65905 10.7834 9.66024 10.7797 9.66353 10.7763L9.94903 11.0565C10.0199 10.9843 10.0591 10.8871 10.0591 10.7866H9.65905ZM9.66353 10.7763C9.66695 10.7728 9.67239 10.7702 9.67888 10.7702V11.1702C9.78094 11.1702 9.87804 11.1288 9.94903 11.0565L9.66353 10.7763ZM4.80937 10.803H9.49871V10.403H4.80937V10.803ZM9.69871 10.603V7.30817H9.29871V10.603H9.69871ZM9.49871 7.10817H7.41813V7.50817H9.49871V7.10817ZM7.26133 7.18402L4.65257 10.4788L4.96617 10.7271L7.57493 7.43232L7.26133 7.18402ZM11.0562 6.01159C11.0596 6.01164 11.0625 6.01275 11.0646 6.01426L10.8303 6.33847C10.8945 6.38486 10.9715 6.41053 11.051 6.41156L11.0562 6.01159ZM11.0689 6.01746C11.0718 6.01962 11.0733 6.02216 11.0739 6.0243L10.692 6.14314C10.7157 6.21924 10.7623 6.28655 10.826 6.33527L11.0689 6.01746ZM11.0739 6.0243C11.0746 6.02642 11.0746 6.02858 11.0739 6.0307L10.6927 5.90955C10.6686 5.98547 10.6683 6.06707 10.692 6.14314L11.0739 6.0243ZM11.0735 6.03186L11.5968 4.41967L11.2163 4.29619L10.6931 5.90838L11.0735 6.03186ZM11.5249 4.19674L10.1724 3.20327L9.93563 3.52565L11.2881 4.51912L11.5249 4.19674ZM10.1691 3.20085C10.1735 3.20397 10.1762 3.20798 10.1774 3.21177L9.79722 3.33612C9.8225 3.41341 9.87199 3.48095 9.939 3.52807L10.1691 3.20085ZM10.1774 3.21177C10.1786 3.21552 10.1786 3.21946 10.1774 3.22321L9.7974 3.09826C9.77201 3.17547 9.77195 3.25888 9.79722 3.33612L10.1774 3.21177ZM10.1778 3.22181C10.1772 3.22396 10.1756 3.22649 10.1728 3.22863L9.93211 2.90913C9.86822 2.95725 9.82121 3.02399 9.79695 3.09966L10.1778 3.22181ZM10.1728 3.22863C10.1699 3.23082 10.1659 3.23235 10.1614 3.23243L10.154 2.8325C10.0736 2.83398 9.99605 2.86096 9.93211 2.90913L10.1728 3.22863ZM10.1577 3.23246H11.8212V2.83246H10.1577V3.23246ZM12.0118 3.09297L12.5227 1.48329L12.1414 1.36228L11.6305 2.97196L12.0118 3.09297ZM12.5234 1.4809C12.5223 1.48468 12.5198 1.48869 12.5155 1.49187L12.2778 1.17009C12.2121 1.21862 12.1643 1.28706 12.1407 1.36467L12.5234 1.4809ZM12.5155 1.49187C12.5111 1.49509 12.5053 1.49711 12.499 1.497L12.5057 1.09706C12.4236 1.09568 12.3436 1.12152 12.2778 1.17009L12.5155 1.49187ZM12.5057 1.497C12.4994 1.49711 12.4936 1.4951 12.4893 1.49187L12.7269 1.17009C12.6611 1.12151 12.5811 1.09568 12.499 1.09706L12.5057 1.497ZM12.4893 1.49187C12.485 1.48869 12.4824 1.48468 12.4813 1.4809L12.864 1.36467C12.8405 1.28706 12.7926 1.21862 12.7269 1.17009L12.4893 1.49187ZM12.482 1.48312L12.9929 3.09783L13.3742 2.97716L12.8633 1.36246L12.482 1.48312ZM13.1836 3.23749H14.8446V2.83749H13.1836V3.23749ZM14.8436 3.23749C14.8391 3.23747 14.835 3.23597 14.8321 3.23376L15.0705 2.9126C15.0055 2.86435 14.9268 2.83787 14.8455 2.8375L14.8436 3.23749ZM14.8321 3.23376C14.8292 3.2316 14.8276 3.22904 14.8269 3.22687L15.2078 3.10466C15.1832 3.02816 15.1354 2.96082 15.0705 2.9126L14.8321 3.23376ZM14.8273 3.22824C14.8261 3.22449 14.8261 3.22055 14.8273 3.2168L15.2075 3.34115C15.2328 3.2639 15.2327 3.1805 15.2073 3.10329L14.8273 3.22824ZM14.8273 3.2168C14.8286 3.21301 14.8312 3.209 14.8357 3.20588L15.0657 3.5331C15.1327 3.48598 15.1822 3.41844 15.2075 3.34115L14.8273 3.2168ZM14.8319 3.20861L13.4868 4.20209L13.7244 4.52384L15.0695 3.53037L14.8319 3.20861ZM13.4152 4.42408L13.931 6.03124L14.3119 5.909L13.796 4.30184L13.4152 4.42408ZM13.9308 6.0307C13.9301 6.02858 13.9301 6.02642 13.9308 6.0243L14.3127 6.14314C14.3364 6.06707 14.3362 5.98547 14.312 5.90955L13.9308 6.0307ZM13.9308 6.0243C13.9315 6.02216 13.933 6.01962 13.9358 6.01746L14.1787 6.33527C14.2424 6.28655 14.2891 6.21924 14.3127 6.14314L13.9308 6.0243ZM13.9411 6.01353C13.9437 6.0117 13.9472 6.01045 13.9511 6.01045V6.41045C14.031 6.41045 14.1086 6.38539 14.1734 6.3392L13.9411 6.01353ZM13.9511 6.01045C13.9551 6.01045 13.9586 6.0117 13.9611 6.01353L13.7289 6.3392C13.7937 6.38539 13.8712 6.41045 13.9511 6.41045V6.01045ZM13.9649 6.01631L12.6223 5.01026L12.3824 5.33037L13.7251 6.33642L13.9649 6.01631ZM12.3824 5.01026L11.0398 6.01631L11.2797 6.33642L12.6223 5.33037L12.3824 5.01026ZM11.0426 6.01426C11.0447 6.01275 11.0476 6.01164 11.051 6.01159L11.0562 6.41156C11.1357 6.41053 11.2127 6.38486 11.2769 6.33847L11.0426 6.01426ZM10.5958 3.56246L11.5831 4.29939L11.8223 3.97885L10.8351 3.24191L10.5958 3.56246ZM11.585 4.30084C11.5816 4.29836 11.5797 4.29532 11.5788 4.29261L11.9595 4.16963C11.9346 4.09275 11.8862 4.02525 11.8204 3.97739L11.585 4.30084ZM11.5788 4.29261C11.578 4.28995 11.578 4.28719 11.5788 4.28452L11.9599 4.40619C11.9844 4.32926 11.9843 4.24647 11.9595 4.16963L11.5788 4.29261ZM11.5779 4.28746L11.2151 5.48718L11.598 5.60296L11.9608 4.40325L11.5779 4.28746ZM11.528 5.70397L12.5152 4.94944L12.2723 4.63163L11.2851 5.38617L11.528 5.70397ZM12.5147 4.94986C12.5108 4.95278 12.5056 4.95469 12.4999 4.95469V4.55469C12.4177 4.55469 12.3381 4.58174 12.2729 4.63121L12.5147 4.94986ZM12.4999 4.95469C12.4942 4.95469 12.489 4.95278 12.4851 4.94986L12.7269 4.63121C12.6617 4.58174 12.5821 4.55469 12.4999 4.55469V4.95469ZM12.4859 4.95041L13.4731 5.69237L13.7134 5.37261L12.7262 4.63065L12.4859 4.95041ZM13.7836 5.47126L13.3986 4.27406L13.0178 4.39653L13.4029 5.59373L13.7836 5.47126ZM13.3988 4.27446C13.3996 4.27712 13.3996 4.27989 13.3987 4.28255L13.0181 4.15957C12.9933 4.23641 12.9931 4.31921 13.0177 4.39613L13.3988 4.27446ZM13.3987 4.28255C13.3979 4.28526 13.3959 4.2883 13.3925 4.29078L13.1572 3.96733C13.0914 4.01519 13.043 4.08269 13.0181 4.15957L13.3987 4.28255ZM13.3934 4.29018L14.3954 3.55325L14.1584 3.23101L13.1564 3.96794L13.3934 4.29018ZM14.2769 3.19213H13.0429V3.59213H14.2769V3.19213ZM13.0547 3.19248C13.0598 3.19278 13.0643 3.19456 13.0678 3.19714L12.829 3.51805C12.8876 3.56167 12.9578 3.58742 13.031 3.59177L13.0547 3.19248ZM13.0678 3.19714C13.0712 3.19969 13.0734 3.20279 13.0745 3.20572L12.7003 3.34714C12.7259 3.41501 12.7705 3.47447 12.829 3.51805L13.0678 3.19714ZM13.0778 3.21532L12.6928 2.0156L12.3119 2.13783L12.6969 3.33755L13.0778 3.21532ZM12.3117 2.01632L11.9316 3.21603L12.3129 3.33683L12.693 2.13712L12.3117 2.01632ZM11.9313 3.21719C11.9321 3.21451 11.9339 3.2115 11.9372 3.209L12.1779 3.52851C12.2424 3.47993 12.2895 3.41228 12.3133 3.33567L11.9313 3.21719ZM11.9372 3.209C11.9406 3.20646 11.9452 3.20475 11.9503 3.20471L11.9537 3.60469C12.0349 3.60401 12.1133 3.57713 12.1779 3.52851L11.9372 3.209ZM11.9524 3.2047L10.7159 3.20219L10.7151 3.60219L11.9516 3.6047L11.9524 3.2047ZM8.07903 3.78318C8.08258 3.78317 8.08599 3.7839 8.08904 3.78521L7.93067 4.15253C7.97783 4.17286 8.02867 4.18332 8.08012 4.18318L8.07903 3.78318ZM8.08904 3.78521C8.09207 3.78652 8.09455 3.78833 8.09644 3.79032L7.80602 4.06537C7.84117 4.10249 7.88353 4.1322 7.93067 4.15253L8.08904 3.78521ZM8.09398 3.78777L5.52471 1.16953L5.23921 1.44969L7.80848 4.06793L8.09398 3.78777ZM5.53228 1.17768C5.53424 1.17991 5.53483 1.18215 5.53483 1.18385H5.13483C5.13483 1.27835 5.16898 1.37013 5.23165 1.44154L5.53228 1.17768ZM5.53483 1.18385C5.53483 1.18555 5.53424 1.18779 5.53228 1.19003L5.23165 0.926165C5.16898 0.997571 5.13483 1.08935 5.13483 1.18385H5.53483ZM5.51848 1.20426C5.51548 1.20706 5.51085 1.20918 5.50537 1.20918V0.809183C5.4085 0.809183 5.31581 0.846215 5.24545 0.911934L5.51848 1.20426ZM5.50537 1.20918C5.49988 1.20918 5.49525 1.20706 5.49225 1.20426L5.76529 0.911934C5.69493 0.846214 5.60223 0.809183 5.50537 0.809183V1.20918ZM5.48622 1.19838L8.05549 3.80908L8.34059 3.5285L5.77132 0.917809L5.48622 1.19838ZM8.05103 3.8044C8.04804 3.80115 8.04693 3.79758 8.04693 3.79455H8.44693C8.44693 3.69805 8.41086 3.60453 8.34504 3.53318L8.05103 3.8044ZM8.04693 3.79455C8.04693 3.79152 8.04804 3.78794 8.05103 3.78469L8.34504 4.05591C8.41086 3.98456 8.44693 3.89104 8.44693 3.79455H8.04693ZM8.04154 3.79577C8.04405 3.79262 8.04737 3.78977 8.05144 3.78761L8.23897 4.14093C8.2838 4.11713 8.32309 4.08436 8.35454 4.04483L8.04154 3.79577ZM8.05144 3.78761C8.05553 3.78544 8.0602 3.78406 8.06513 3.7837L8.09401 4.18266C8.14478 4.17898 8.19413 4.16473 8.23897 4.14093L8.05144 3.78761ZM5.23635 6.88935H5.18945V7.28935H5.23635V6.88935ZM5.24248 6.89651L1.72053 5.92819L1.61449 6.31388L5.13643 7.2822L5.24248 6.89651ZM1.68183 5.92154C1.68535 5.9218 1.68859 5.92284 1.69131 5.92439L1.4923 6.27138C1.54151 6.2996 1.59646 6.31645 1.65319 6.32052L1.68183 5.92154ZM1.69131 5.92439C1.69401 5.92594 1.69601 5.92789 1.69738 5.92986L1.36883 6.15803C1.40102 6.20437 1.44312 6.24317 1.4923 6.27138L1.69131 5.92439ZM1.69738 5.92986C1.69873 5.93182 1.69949 5.93382 1.69981 5.93568L1.3056 6.00351C1.31514 6.05891 1.33666 6.1117 1.36883 6.15803L1.69738 5.92986ZM1.69981 5.93568C1.70013 5.93753 1.70005 5.93943 1.69954 5.94131L1.31339 5.83697C1.29872 5.89126 1.29607 5.94811 1.3056 6.00351L1.69981 5.93568ZM1.69954 5.94131C1.69903 5.9432 1.69804 5.94523 1.69641 5.94716L1.3909 5.68896C1.35445 5.73209 1.32806 5.78267 1.31339 5.83697L1.69954 5.94131ZM1.69641 5.94716C1.69476 5.94911 1.69246 5.95096 1.6895 5.95229L1.52473 5.5878C1.47301 5.61118 1.42736 5.64583 1.3909 5.68896L1.69641 5.94716ZM1.6895 5.95229C1.68652 5.95364 1.68312 5.95436 1.67958 5.95427L1.68969 5.5544C1.63282 5.55296 1.57647 5.56442 1.52473 5.5878L1.6895 5.95229ZM1.67958 5.95427C1.67604 5.95418 1.67272 5.95329 1.66988 5.95183L1.85272 5.59606C1.80225 5.57012 1.74655 5.55583 1.68969 5.5544L1.67958 5.95427ZM1.70862 5.96688L5.21822 6.92514L5.32358 6.53927L1.81398 5.58101L1.70862 5.96688ZM5.20852 6.92223C5.20354 6.92059 5.20008 6.91755 5.19813 6.91451L5.5345 6.69805C5.48741 6.62487 5.41661 6.56954 5.33329 6.54218L5.20852 6.92223ZM5.19813 6.91451C5.19622 6.91154 5.19562 6.90848 5.19588 6.90572L5.59402 6.94424C5.60237 6.858 5.58155 6.77116 5.5345 6.69805L5.19813 6.91451ZM5.19588 6.90572C5.19615 6.90295 5.19738 6.89973 5.2002 6.89682L5.48804 7.17457C5.54857 7.11184 5.58568 7.03049 5.59402 6.94424L5.19588 6.90572ZM5.2002 6.89682C5.20308 6.89383 5.20749 6.89137 5.21294 6.89073L5.25975 7.28798C5.34698 7.2777 5.42745 7.23736 5.48804 7.17457L5.2002 6.89682ZM16.9224 3.7832C16.9275 3.78313 16.9325 3.78416 16.9369 3.78612L16.7759 4.1523C16.8238 4.17332 16.8756 4.18388 16.9279 4.18316L16.9224 3.7832ZM16.9369 3.78612C16.9413 3.78806 16.945 3.79081 16.9479 3.79396L16.6507 4.06173C16.6855 4.10034 16.7281 4.13128 16.7759 4.1523L16.9369 3.78612ZM16.9445 3.79032C16.9481 3.79409 16.9494 3.79836 16.9494 3.80209H16.5494C16.5494 3.89965 16.5866 3.99409 16.6541 4.06537L16.9445 3.79032ZM16.9494 3.80209C16.9494 3.80582 16.9481 3.8101 16.9445 3.81386L16.6541 3.53881C16.5866 3.61009 16.5494 3.70453 16.5494 3.80209H16.9494ZM16.9424 3.81607L19.5092 1.18777L19.223 0.908297L16.6562 3.5366L16.9424 3.81607ZM19.5008 1.19585C19.4983 1.19817 19.4943 1.2 19.4895 1.2V0.8C19.3936 0.8 19.3018 0.83603 19.2314 0.900222L19.5008 1.19585ZM19.4895 1.2C19.4847 1.2 19.4807 1.19817 19.4782 1.19585L19.7476 0.900222C19.6772 0.836029 19.5853 0.8 19.4895 0.8V1.2ZM19.4626 1.17996C19.4606 1.17773 19.46 1.1755 19.46 1.17379H19.86C19.86 1.07929 19.8259 0.987509 19.7632 0.916104L19.4626 1.17996ZM19.46 1.17379C19.46 1.17208 19.4606 1.16985 19.4626 1.16762L19.7632 1.43148C19.8259 1.36007 19.86 1.2683 19.86 1.17379H19.46ZM19.4696 1.16002L16.9102 3.78832L17.1968 4.06738L19.7562 1.43908L19.4696 1.16002ZM16.9066 3.7921C16.909 3.78953 16.9121 3.78725 16.9159 3.78563L17.0742 4.15294C17.1222 4.13227 17.1651 4.10176 17.2004 4.06359L16.9066 3.7921ZM16.9159 3.78563C16.9196 3.784 16.9238 3.78314 16.9282 3.7832L16.9221 4.18316C16.9744 4.18395 17.0263 4.17362 17.0742 4.15294L16.9159 3.78563ZM19.7747 6.88944C19.7807 6.88926 19.786 6.89142 19.7896 6.89456L19.5276 7.19678C19.5992 7.25885 19.6915 7.29214 19.7868 7.28926L19.7747 6.88944ZM19.7896 6.89456C19.7932 6.8976 19.7947 6.90117 19.7951 6.90417L19.3984 6.95553C19.4105 7.04869 19.4561 7.1348 19.5276 7.19678L19.7896 6.89456ZM19.7951 6.90417C19.7955 6.90714 19.7949 6.91048 19.7927 6.91368L19.4614 6.68959C19.4085 6.76768 19.3864 6.86239 19.3984 6.95553L19.7951 6.90417ZM19.7927 6.91368C19.7905 6.91698 19.7864 6.92022 19.7808 6.92159L19.6869 6.53277C19.5944 6.55511 19.5142 6.61141 19.4614 6.68959L19.7927 6.91368ZM19.7861 6.92022L23.3056 5.96699L23.201 5.5809L19.6815 6.53413L19.7861 6.92022ZM23.3284 5.95932C23.3255 5.9605 23.3222 5.96109 23.3188 5.96094L23.3362 5.56132C23.2822 5.55897 23.2283 5.56829 23.1782 5.58857L23.3284 5.95932ZM23.3188 5.96094C23.3155 5.9608 23.3123 5.95993 23.3096 5.95855L23.4912 5.60217C23.4431 5.57765 23.3903 5.56368 23.3362 5.56132L23.3188 5.96094ZM23.3096 5.95855C23.3069 5.95718 23.3048 5.95539 23.3033 5.95352L23.6152 5.703C23.5815 5.66111 23.5393 5.62668 23.4912 5.60217L23.3096 5.95855ZM23.3033 5.95352C23.3018 5.95166 23.3009 5.94974 23.3004 5.94795L23.687 5.845C23.6732 5.79329 23.6488 5.74488 23.6152 5.703L23.3033 5.95352ZM23.3004 5.94795C23.3 5.94615 23.2999 5.94435 23.3002 5.94259L23.6955 6.00359C23.7036 5.95073 23.7007 5.89671 23.687 5.845L23.3004 5.94795ZM23.3002 5.94259C23.3004 5.94082 23.3011 5.93894 23.3023 5.93707L23.6394 6.15237C23.6683 6.10715 23.6873 6.05645 23.6955 6.00359L23.3002 5.94259ZM23.3023 5.93707C23.3035 5.9352 23.3052 5.93331 23.3076 5.93173L23.5273 6.266C23.5724 6.23638 23.6105 6.19759 23.6394 6.15237L23.3023 5.93707ZM23.3076 5.93173C23.3101 5.93015 23.313 5.92896 23.3163 5.92845L23.3779 6.32367C23.4314 6.31534 23.4823 6.29562 23.5273 6.266L23.3076 5.93173ZM23.2947 5.93305L19.7752 6.8888L19.88 7.27482L23.3995 6.31907L23.2947 5.93305ZM19.7656 6.89167C19.7702 6.89017 19.7751 6.88937 19.78 6.88935L19.7814 7.28935C19.8182 7.28923 19.8547 7.28334 19.8896 7.27194L19.7656 6.89167ZM18.7367 22.8H6.268V23.2H18.7367V22.8ZM6.268 22.8C6.27449 22.8 6.27993 22.8027 6.28335 22.8061L5.99785 23.0863C6.06885 23.1587 6.16595 23.2 6.268 23.2V22.8ZM6.28335 22.8061C6.28665 22.8095 6.28783 22.8133 6.28783 22.8164H5.88783C5.88783 22.9169 5.92699 23.0141 5.99785 23.0863L6.28335 22.8061ZM6.28783 22.8164C6.28783 22.8195 6.28665 22.8233 6.28335 22.8266L5.99785 22.5465C5.92699 22.6187 5.88783 22.7159 5.88783 22.8164H6.28783ZM6.28335 22.8266C6.27994 22.8301 6.27449 22.8328 6.268 22.8328V22.4328C6.16595 22.4328 6.06885 22.4741 5.99785 22.5465L6.28335 22.8266ZM6.268 22.8328H18.7367V22.4328H6.268V22.8328ZM18.7367 22.8328C18.7302 22.8328 18.7248 22.8301 18.7214 22.8266L19.0069 22.5465C18.9359 22.4741 18.8388 22.4328 18.7367 22.4328V22.8328ZM18.7214 22.8266C18.7181 22.8233 18.7169 22.8195 18.7169 22.8164H19.1169C19.1169 22.7159 19.0777 22.6187 19.0069 22.5465L18.7214 22.8266ZM18.7169 22.8164C18.7169 22.8133 18.7181 22.8095 18.7214 22.8061L19.0069 23.0863C19.0777 23.0141 19.1169 22.9169 19.1169 22.8164H18.7169ZM18.7214 22.8061C18.7248 22.8027 18.7302 22.8 18.7367 22.8V23.2C18.8388 23.2 18.9359 23.1587 19.0069 23.0863L18.7214 22.8061Z" fill="#0B1547" mask="url(#path-1-outside-1_210_181)"/>
</svg>
