<svg width="22" height="22" viewBox="0 0 22 22" fill="none" xmlns="http://www.w3.org/2000/svg">
<path d="M5.5 8.25C3.98122 8.25 2.75 7.01878 2.75 5.5C2.75 3.98122 3.98122 2.75 5.5 2.75C7.01878 2.75 8.25 3.98122 8.25 5.5C8.25 5.61504 8.24294 5.72842 8.22922 5.83975L14.5909 9.02061C15.0855 8.54347 15.7585 8.25 16.5 8.25C18.0188 8.25 19.25 9.48122 19.25 11C19.25 12.5188 18.0188 13.75 16.5 13.75C15.7585 13.75 15.0855 13.4565 14.5909 12.9794L8.22922 16.1603C8.24294 16.2716 8.25 16.385 8.25 16.5C8.25 18.0188 7.01878 19.25 5.5 19.25C3.98122 19.25 2.75 18.0188 2.75 16.5C2.75 14.9812 3.98122 13.75 5.5 13.75C6.2415 13.75 6.91446 14.0435 7.40906 14.5206L13.7708 11.3397C13.7571 11.2284 13.75 11.115 13.75 11C13.75 10.885 13.7571 10.7716 13.7708 10.6603L7.40906 7.47939C6.91446 7.95653 6.2415 8.25 5.5 8.25Z" fill="#7D90DC"/>
</svg>
