<svg width="21" height="20" viewBox="0 0 21 20" fill="none" xmlns="http://www.w3.org/2000/svg">
<path d="M14.7304 12.4386C13.8303 13.3387 12.6846 14.4162 11.2898 15.6729C11.2895 15.6731 11.2892 15.6734 11.289 15.6737L10.75 16.1569L10.211 15.6737C10.2107 15.6734 10.2104 15.6731 10.2101 15.6729C8.81542 14.4162 7.66967 13.3387 6.7696 12.4386C5.87419 11.5432 5.18088 10.758 4.67773 10.0807C4.17381 9.40232 3.85434 8.82138 3.68276 8.33433C3.50454 7.82842 3.41666 7.31569 3.41666 6.79159C3.41666 5.73502 3.75997 4.90415 4.43626 4.22786C5.11256 3.55157 5.94342 3.20825 6.99999 3.20825C7.57601 3.20825 8.11875 3.32897 8.63855 3.57228C9.15991 3.81632 9.60758 4.15828 9.98805 4.6059L10.75 5.5023L11.5119 4.6059C11.8924 4.15828 12.3401 3.81632 12.8614 3.57228C13.3812 3.32897 13.924 3.20825 14.5 3.20825C15.5566 3.20825 16.3874 3.55157 17.0637 4.22786C17.74 4.90415 18.0833 5.73502 18.0833 6.79159C18.0833 7.31569 17.9954 7.82842 17.8172 8.33433C17.6456 8.82138 17.3262 9.40232 16.8222 10.0807C16.3191 10.758 15.6258 11.5432 14.7304 12.4386Z" fill="white" stroke="white" stroke-width="2"/>
</svg>
