<svg width="22" height="22" viewBox="0 0 22 22" fill="none" xmlns="http://www.w3.org/2000/svg">
<path d="M16.3193 13.0769C16.768 12.6555 16.8321 12.0535 16.4475 11.4515C16.127 10.9699 15.5501 10.7291 14.9091 10.8495C14.6527 10.9097 14.3963 11.0301 14.1399 11.2107C12.1529 12.4749 9.46081 12.4147 7.47377 11.1505C7.34558 11.0903 7.21738 11.0301 7.08918 10.9699C6.38411 10.6689 5.67904 10.7893 5.29445 11.3913C4.84577 11.9933 4.90986 12.6555 5.48674 13.1973C5.61493 13.3177 5.74313 13.3779 5.80723 13.4983L5.87133 13.5585C6.7687 14.2207 7.85836 14.6421 9.26852 14.8227L8.43524 15.6054C7.73017 16.2676 6.961 16.99 6.25592 17.6522C6.06363 17.8328 5.80723 18.1338 5.80723 18.5552C5.80723 19.097 6.12772 19.6388 6.7046 19.8796C6.8969 20 7.08919 20 7.28148 20C7.60197 20 7.98656 19.8796 8.24295 19.5786C9.20441 18.6756 9.97359 17.9532 10.7428 17.2308C10.8069 17.1706 10.8069 17.1706 10.8069 17.1706C10.8069 17.1706 10.871 17.1706 10.871 17.2308C11.3837 17.7726 11.9606 18.2542 12.4734 18.796C12.7298 19.0368 12.9862 19.2776 13.2426 19.5184C13.5631 19.8194 13.8195 19.9398 14.204 19.9398C14.7809 20 15.4219 19.6388 15.6783 19.097C15.9347 18.6154 15.8065 18.0134 15.3578 17.6522C14.7168 17.0502 14.0759 16.388 13.3708 15.786L12.2811 14.7625C12.858 14.7023 13.499 14.5819 14.0759 14.3411C15.0373 14.0401 15.7424 13.6187 16.3193 13.0769Z" fill="white"/>
<path d="M10.8069 11.3913C13.5631 11.3913 15.8065 9.34448 15.8065 6.75585C15.8065 5.49163 15.2937 4.28763 14.3322 3.38462C13.3708 2.48161 12.1529 2 10.871 2C8.11475 2 5.93543 4.10702 5.87133 6.63545C5.87133 7.89966 6.38411 9.04347 7.34558 9.94648C8.24295 10.9097 9.46081 11.3913 10.8069 11.3913ZM9.39671 5.37124C9.7813 5.01004 10.2941 4.82943 10.8069 4.82943C11.9606 4.82943 12.7939 5.67224 12.7939 6.69565C12.7939 7.77926 11.8965 8.56187 10.8069 8.56187C9.6531 8.56187 8.81983 7.71906 8.81983 6.69565C8.81983 6.21405 9.01212 5.73244 9.39671 5.37124Z" fill="white"/>
<path d="M16.3193 13.0769C16.768 12.6555 16.8321 12.0535 16.4475 11.4515C16.127 10.9699 15.5501 10.7291 14.9091 10.8495C14.6527 10.9097 14.3963 11.0301 14.1399 11.2107C12.1529 12.4749 9.46081 12.4147 7.47377 11.1505C7.34558 11.0903 7.21738 11.0301 7.08918 10.9699C6.38411 10.6689 5.67904 10.7893 5.29445 11.3913C4.84577 11.9933 4.90986 12.6555 5.48674 13.1973C5.61493 13.3177 5.74313 13.3779 5.80723 13.4983L5.87133 13.5585C6.7687 14.2207 7.85836 14.6421 9.26852 14.8227L8.43524 15.6054C7.73017 16.2676 6.961 16.99 6.25592 17.6522C6.06363 17.8328 5.80723 18.1338 5.80723 18.5552C5.80723 19.097 6.12772 19.6388 6.7046 19.8796C6.8969 20 7.08919 20 7.28148 20C7.60197 20 7.98656 19.8796 8.24295 19.5786C9.20441 18.6756 9.97359 17.9532 10.7428 17.2308C10.8069 17.1706 10.8069 17.1706 10.8069 17.1706C10.8069 17.1706 10.871 17.1706 10.871 17.2308C11.3837 17.7726 11.9606 18.2542 12.4734 18.796C12.7298 19.0368 12.9862 19.2776 13.2426 19.5184C13.5631 19.8194 13.8195 19.9398 14.204 19.9398C14.7809 20 15.4219 19.6388 15.6783 19.097C15.9347 18.6154 15.8065 18.0134 15.3578 17.6522C14.7168 17.0502 14.0759 16.388 13.3708 15.786L12.2811 14.7625C12.858 14.7023 13.499 14.5819 14.0759 14.3411C15.0373 14.0401 15.7424 13.6187 16.3193 13.0769Z" fill="white"/>
</svg>
