<svg width="24" height="24" viewBox="0 0 24 24" fill="none" xmlns="http://www.w3.org/2000/svg">
<g clip-path="url(#clip0_210_197)">
<path fill-rule="evenodd" clip-rule="evenodd" d="M6.95938 2.85431C6.83712 2.89333 6.63012 3.0176 6.49939 3.13042C6.00946 3.55326 0.0583805 9.00511 -0.0681919 9.14708C-0.30468 9.41232 -0.396196 9.6725 -0.396196 10.0796C-0.396196 10.5237 -0.293156 10.7726 -0.000547886 11.0352C0.288235 11.2944 0.540072 11.392 0.923276 11.3933L1.25012 11.3943V15.7003V20.0062H0.523803C-0.137967 20.0062 -0.211131 20.0148 -0.299354 20.1024C-0.435852 20.2381 -0.432947 20.5837 -0.294269 20.7084C-0.194619 20.798 0.0782811 20.8 11.9996 20.8C23.9209 20.8 24.1938 20.798 24.2934 20.7084C24.4398 20.5768 24.4343 20.2518 24.2833 20.1108C24.1883 20.0221 24.1145 20.0062 23.7991 20.0062H23.4269V15.128V10.2499L23.819 10.2322C24.2842 10.2112 24.3959 10.1252 24.3945 9.78932C24.3932 9.48939 23.0716 5.10229 22.9445 4.976L22.8432 4.87531L16.5329 4.86275L10.2226 4.85019L9.21144 3.92896C8.57229 3.34668 8.12091 2.97285 7.98446 2.91291C7.70366 2.7895 7.24473 2.76323 6.95938 2.85431ZM7.74899 3.73267C8.19712 4.07546 14.2752 9.73817 14.3261 9.86038C14.5015 10.2811 14.0627 10.6964 13.6388 10.5109C13.5495 10.4718 12.1478 9.21487 10.5239 7.7177C7.71233 5.12548 7.56276 4.99558 7.3898 4.99558C7.2212 4.99558 7.13782 5.06039 6.22653 5.89945C5.68659 6.39658 4.32286 7.65227 3.19601 8.68988L1.14717 10.5765H0.91519C0.536392 10.5765 0.309346 10.2885 0.410159 9.93577C0.443666 9.81842 1.21157 9.08208 3.69673 6.7843C5.48032 5.1352 7.00495 3.74427 7.08484 3.69332C7.29528 3.55918 7.54121 3.57376 7.74899 3.73267ZM22.4296 5.92172C22.4708 6.06062 22.7204 6.89958 22.9844 7.78602L23.4645 9.39774L19.2694 9.41064L15.0743 9.42353L14.9374 9.25538C14.862 9.16291 13.9741 8.32636 12.9642 7.39637C11.9543 6.46639 11.128 5.69733 11.128 5.68732C11.128 5.67732 13.654 5.66914 16.7414 5.66914H22.3548L22.4296 5.92172ZM10.1052 8.39987L12.7259 10.8179V15.4121V20.0062H11.9762H11.2265L11.2136 16.1694L11.2006 12.3325L11.064 12.0561C10.95 11.8253 10.7197 11.5827 9.67115 10.5887C8.30026 9.28901 8.06663 9.12009 7.56334 9.06448C7.22778 9.02738 6.81543 9.12048 6.54011 9.29541C6.33049 9.42863 4.04226 11.5754 3.87216 11.7985C3.80965 11.8805 3.7116 12.045 3.65427 12.1641C3.55079 12.3793 3.55002 12.4046 3.5366 16.1694L3.52309 19.9581H2.79818H2.07327V15.415V10.872L4.74074 8.41228C6.20779 7.0595 7.42534 5.9592 7.44631 5.96723C7.46727 5.97527 8.66375 7.06994 10.1052 8.39987ZM7.77504 10.005C7.88824 10.0842 10.2564 12.3104 10.2564 12.3377C10.2564 12.3481 8.95995 12.3566 7.37537 12.3566C5.79079 12.3566 4.49626 12.3404 4.49858 12.3205C4.50396 12.2751 6.89489 10.039 7.00238 9.97892C7.22313 9.85542 7.5783 9.8674 7.77504 10.005ZM22.5554 13.2827C22.5554 14.9564 22.5699 17.1539 22.5875 18.166L22.6195 20.0062H18.0842H13.549V15.7003V11.3943L13.8517 11.3939C14.458 11.393 14.956 11.0237 15.1069 10.4632L15.167 10.2397H18.8612H22.5553L22.5554 13.2827ZM14.9201 12.4045C14.8619 12.4281 14.7911 12.4905 14.7627 12.5431C14.7278 12.608 14.7111 13.616 14.7111 15.6656C14.7111 18.6815 14.7115 18.6926 14.8131 18.784C14.9111 18.8721 15.0359 18.8756 18.1006 18.8756C21.1653 18.8756 21.2901 18.8721 21.3882 18.784C21.4897 18.6926 21.4901 18.6822 21.4901 15.6281C21.4901 12.5743 21.4897 12.5636 21.3882 12.4723C21.2904 12.3843 21.159 12.3802 18.1561 12.3711C16.4096 12.3658 14.9791 12.3805 14.9201 12.4045ZM10.4501 16.5903V20.0062H7.39958H4.34906V16.5903V13.1745H7.39958H10.4501V16.5903ZM17.6648 14.2088V15.2432H16.5754H15.4859V14.2088V13.1745H16.5754H17.6648V14.2088ZM20.6669 14.2088V15.2432H19.5775H18.488V14.2088V13.1745H19.5775H20.6669V14.2088ZM9.06792 15.8425C8.9538 15.9558 8.94905 15.9858 8.94905 16.5903C8.94905 17.1949 8.9538 17.2249 9.06792 17.3382C9.14995 17.4198 9.24059 17.4563 9.36063 17.4563C9.48066 17.4563 9.57131 17.4198 9.65333 17.3382C9.76746 17.2249 9.77221 17.1949 9.77221 16.5903C9.77221 15.9858 9.76746 15.9558 9.65333 15.8425C9.49166 15.6818 9.2296 15.6818 9.06792 15.8425ZM17.6648 17.0474V18.0818H16.5754H15.4859V17.0474V16.013H16.5754H17.6648V17.0474ZM20.6669 17.0474V18.0818H19.5775H18.488V17.0474V16.013H19.5775H20.6669V17.0474Z" fill="#0B1547"/>
</g>
<defs>
<clipPath id="clip0_210_197">
<rect width="24" height="24" fill="white"/>
</clipPath>
</defs>
</svg>
