<svg width="18" height="19" viewBox="0 0 18 19" fill="none" xmlns="http://www.w3.org/2000/svg">
<path d="M14.25 3.65H9.6V3.35H14.25C14.5021 3.35 14.703 3.43276 14.8851 3.61489C15.0672 3.79702 15.15 3.9979 15.15 4.25V14.75C15.15 15.0021 15.0672 15.203 14.8851 15.3851C14.703 15.5672 14.5021 15.65 14.25 15.65H9.6V15.35H14.25H14.85V14.75V4.25V3.65H14.25ZM8.38125 9.65H2.85V9.35H8.38125H9.82978L8.80551 8.32574L7.30616 6.82639L7.51141 6.60994L10.4015 9.5L7.51141 12.3901L7.30616 12.1736L8.80551 10.6743L9.82978 9.65H8.38125Z" stroke="#0B1547" stroke-width="1.2"/>
</svg>
