<svg width="200" height="73" viewBox="0 0 200 73" fill="none" xmlns="http://www.w3.org/2000/svg">
<g clip-path="url(#clip0_204_121)">
<path d="M13.3293 59.2445C12.6701 59.2882 12.0085 59.2145 11.3746 59.0268C11.1466 58.9427 10.9491 58.7909 10.8077 58.5914H10.8468L9.68051 56.2889C9.22441 55.3652 8.67059 54.3097 8.03205 53.043C7.39352 51.7763 6.72893 50.5162 6.07737 49.1769C5.42581 47.8376 4.72864 46.5379 4.07707 45.2185C3.42551 43.899 2.78047 42.7445 2.25922 41.6955L0.988671 39.1621C0.802856 38.8284 0.639592 38.4823 0.5 38.1263C0.5 38.0537 0.617281 37.9746 0.845328 37.902C1.07337 37.8294 1.36658 37.7568 1.71842 37.6843C2.08464 37.6103 2.45434 37.5553 2.82608 37.5193C3.2105 37.5193 3.57537 37.4666 3.91418 37.4666C4.253 37.4666 4.61135 37.4666 4.98926 37.5061C5.36717 37.5457 5.70598 37.5655 6.02524 37.6117C6.34451 37.6579 6.60513 37.7173 6.82015 37.7766C6.97149 37.7997 7.11236 37.8687 7.22412 37.9746L16.1375 54.8704L18.027 51.0374C17.3038 49.5793 16.548 48.0949 15.7726 46.5841C14.9973 45.0733 14.3066 43.7077 13.6876 42.4674L12.163 39.3996C11.9436 38.9868 11.7478 38.5617 11.5766 38.1263C11.5766 38.0537 11.6873 37.9746 11.9154 37.902C12.1434 37.8294 12.4366 37.7568 12.7885 37.6843C13.1403 37.6117 13.5117 37.5589 13.8961 37.5193C14.2805 37.4797 14.6519 37.4666 14.9907 37.4666C15.3295 37.4666 15.6879 37.4666 16.0593 37.5061C16.4307 37.5457 16.7825 37.5655 17.0953 37.6117C17.408 37.6579 17.6752 37.7173 17.8967 37.7766C18.0462 37.7993 18.1851 37.8685 18.2942 37.9746L21.552 44.1431C22.0341 43.2195 22.5032 42.309 22.9463 41.4052C23.3894 40.5013 23.8259 39.6305 24.2494 38.7662C24.3314 38.6849 24.3938 38.5856 24.4319 38.476C24.484 38.3506 24.5361 38.2318 24.5948 38.1131C24.6576 37.9911 24.739 37.8798 24.8358 37.7832C24.9594 37.6878 25.1053 37.6264 25.2593 37.6051C25.8197 37.6051 26.1259 37.6513 26.1846 37.7502C26.2535 37.8723 26.2853 38.0124 26.2758 38.1527C26.1935 38.3963 26.0911 38.6325 25.9696 38.8586C25.7611 39.2874 25.4874 39.8482 25.1356 40.5409C24.7837 41.2337 24.3732 42.0385 23.8976 42.9622C23.4219 43.8858 22.9202 44.8622 22.412 45.8584L27.1749 54.8704L29.1296 51.0176C29.7812 49.6981 30.4979 48.2994 31.2016 46.914L33.2931 42.7774C33.9838 41.3986 34.6418 40.0725 35.2478 38.7794C35.3254 38.6946 35.3872 38.5963 35.4302 38.4891C35.4779 38.3652 35.5322 38.2441 35.5931 38.1263C35.6517 38.0033 35.731 37.8916 35.8277 37.7964C35.9623 37.6791 36.1274 37.6036 36.3033 37.5787C36.8571 37.5787 37.1699 37.6249 37.2285 37.7239C37.2945 37.8471 37.326 37.9862 37.3198 38.1263C37.1913 38.4647 37.0389 38.7932 36.8637 39.1093L35.6843 41.4778C35.1957 42.4542 34.6484 43.5559 34.0294 44.7764C33.4104 45.997 32.7784 47.2637 32.1203 48.5501C31.4622 49.8366 30.8172 51.0967 30.1656 52.3238C29.514 53.551 28.9732 54.6527 28.4911 55.6225C28.25 56.0844 27.9829 56.5792 27.6897 57.1004C27.3965 57.6215 27.1489 58.1163 26.9273 58.5782C26.7656 58.7984 26.5365 58.9584 26.2758 59.0334C25.6386 59.2031 24.9789 59.2699 24.3211 59.2313C23.662 59.2745 23.0005 59.2008 22.3664 59.0136C22.1401 58.9298 21.9445 58.7779 21.8061 58.5782L20.6984 56.2889L18.9262 52.7791L17.4732 55.6225C17.2256 56.0844 16.965 56.5792 16.6718 57.1004C16.3786 57.6215 16.1245 58.1163 15.9094 58.5782C15.7463 58.797 15.5178 58.9566 15.2579 59.0334C14.6299 59.2055 13.9791 59.2768 13.3293 59.2445Z" fill="#0B1547"/>
<path d="M43.6725 48.484C43.6756 49.825 43.8709 51.1584 44.2524 52.4425C44.5771 53.5201 45.0938 54.5286 45.777 55.4179C46.407 56.221 47.2091 56.8685 48.1226 57.3113C49.0724 57.7609 50.1106 57.9865 51.1589 57.9711C51.8091 57.9704 52.4544 57.8589 53.068 57.6412C53.6728 57.4265 54.2554 57.1525 54.8077 56.8231C55.3364 56.5041 55.8475 56.1561 56.3388 55.7808L57.5898 54.7977L57.9873 54.4679C58.1259 54.3598 58.2796 54.2731 58.4434 54.2106C58.6689 54.1265 58.9026 54.0668 59.1406 54.0324C59.5067 53.9729 59.8774 53.9464 60.2482 53.9533C60.8883 53.9455 61.5277 54.0007 62.1573 54.1182C62.6785 54.2304 62.9652 54.3557 63.0108 54.5009C62.9652 54.4283 62.8349 54.5009 62.6264 54.6856L61.9227 55.3453C61.2547 56.0203 60.5163 56.6198 59.7204 57.1332C58.9384 57.6329 58.1035 58.0423 57.2315 58.3537C56.2906 58.6952 55.3164 58.9341 54.3255 59.0662C53.1806 59.2179 52.0269 59.2907 50.8722 59.284C49.0396 59.3225 47.2124 59.0687 45.4578 58.5319C43.9619 58.0676 42.5728 57.3049 41.3725 56.2887C40.2505 55.3409 39.3588 54.1445 38.7662 52.7921C38.1591 51.3634 37.855 49.8216 37.8736 48.2663C37.8648 46.7425 38.2085 45.2378 38.877 43.8725C39.5254 42.5237 40.4545 41.3331 41.6005 40.3825C42.8376 39.37 44.2493 38.5983 45.764 38.1064C47.4585 37.5437 49.2324 37.2652 51.0156 37.2817C54.1906 37.2847 57.2759 38.3492 59.7921 40.3099C60.9229 41.1872 61.867 42.2867 62.5678 43.5426C63.2351 44.7525 63.585 46.1153 63.5842 47.501C63.5842 48.1344 62.52 48.4511 60.3916 48.4511L43.6725 48.484ZM57.9156 47.1646C57.7845 46.0023 57.5041 44.8623 57.0816 43.7735C56.709 42.792 56.1881 41.875 55.5374 41.0554C54.9518 40.3166 54.222 39.708 53.3938 39.2675C52.5915 38.8349 51.6965 38.6083 50.7875 38.6078C49.8988 38.6047 49.0241 38.8318 48.2464 39.2675C47.4224 39.7286 46.6962 40.3496 46.1093 41.095C45.4502 41.9084 44.9164 42.8182 44.526 43.7933C44.0933 44.8617 43.8062 45.9848 43.6725 47.1316L57.9156 47.1646Z" fill="#0B1547"/>
<path d="M67.6565 0.765222C67.6565 0.573898 67.9236 0.395769 68.4579 0.237431C69.1451 0.0598512 69.8534 -0.0200831 70.5624 -7.41594e-05C71.3141 -0.0543286 72.0688 0.0512938 72.7777 0.310003C73.1687 0.514521 73.3642 0.71904 73.3642 0.910364V58.2218C73.3642 58.4197 73.0644 58.5913 72.4715 58.7364C71.7982 58.8904 71.1093 58.9635 70.4191 58.9541C69.8587 58.9541 69.4027 58.9541 69.0378 58.9013C68.7498 58.8766 68.4644 58.828 68.1842 58.7562C68.028 58.7204 67.884 58.6429 67.7672 58.5319C67.6928 58.4465 67.6532 58.3356 67.6565 58.2218V0.765222Z" fill="#0B1547"/>
<path d="M80.59 0.76522C80.59 0.573896 80.8571 0.395767 81.3914 0.23743C82.0809 0.0603305 82.7913 -0.0195916 83.5024 -7.60881e-05C84.2541 -0.0537456 85.0086 0.0518602 85.7178 0.310001C86.1022 0.514519 86.2976 0.719038 86.2976 0.910362V58.2218C86.2976 58.4197 86.0044 58.5912 85.405 58.7364C84.7317 58.8904 84.0428 58.9634 83.3526 58.9541C82.7988 58.9541 82.3362 58.9541 81.9713 58.9013C81.6835 58.8754 81.3981 58.8268 81.1177 58.7562C80.9621 58.7186 80.8186 58.6414 80.7007 58.5319C80.6263 58.4465 80.5867 58.3356 80.59 58.2218V0.76522Z" fill="#0B1547"/>
<path d="M95.7844 58.9542C95.0282 58.9931 94.2702 58.9309 93.53 58.7695C93.1651 58.6507 92.9827 58.466 92.9827 58.2219V38.1263C92.9827 37.9019 93.2628 37.7238 93.8232 37.5787C94.5123 37.4129 95.2196 37.3375 95.9277 37.3544C96.9963 37.3544 97.726 37.5919 98.13 38.0669C98.5162 38.5369 98.7444 39.1192 98.7816 39.7294C99.9702 39.009 101.239 38.4332 102.561 38.0141C104.039 37.5592 105.577 37.3367 107.122 37.3544C108.572 37.3134 110.017 37.5369 111.389 38.0141C112.417 38.386 113.344 38.9986 114.093 39.802C114.77 40.5524 115.258 41.458 115.514 42.4409C115.785 43.494 115.919 44.5787 115.911 45.6671V58.2021C115.911 58.4264 115.644 58.5979 115.116 58.7365C114.422 58.8845 113.714 58.9509 113.005 58.9344C111.09 58.9344 110.132 58.6903 110.132 58.2021V45.3438C110.137 44.4488 110.089 43.5544 109.988 42.6653C109.914 41.9438 109.736 41.2371 109.461 40.5673C109.243 40.0316 108.893 39.5615 108.444 39.2016C107.975 38.8597 107.406 38.6857 106.828 38.7068C106.102 38.7264 105.388 38.9065 104.737 39.2346C103.955 39.6164 103.213 40.0761 102.522 40.6069C101.771 41.1706 101.065 41.7926 100.41 42.4673C99.7865 43.0918 99.1991 43.7527 98.6513 44.4465V58.2219C98.6513 58.4462 98.3841 58.6177 97.8498 58.7563C97.171 58.9016 96.4781 58.968 95.7844 58.9542Z" fill="#0B1547"/>
<path d="M122.111 0.78169C122.111 0.563976 122.385 0.379249 122.945 0.234107C123.635 0.074121 124.342 0.00099675 125.05 0.0163936C125.802 -0.0437516 126.557 0.062042 127.265 0.32647C127.63 0.530989 127.812 0.735508 127.812 0.926832V48.6853C128.945 47.8896 130.032 47.0306 131.07 46.1123C132.158 45.1491 133.253 44.1331 134.328 43.1567C135.403 42.1802 136.511 41.1774 137.586 40.201C138.62 39.2787 139.708 38.4195 140.844 37.628L141.495 37.2652C142.003 37.3114 142.498 37.3708 142.981 37.4301C143.463 37.4895 143.893 37.5555 144.284 37.628C144.579 37.6843 144.87 37.757 145.157 37.8458C145.372 37.9183 145.483 37.9909 145.483 38.0701C145.208 38.2002 144.946 38.357 144.701 38.5385C144.18 38.8816 143.508 39.3302 142.681 39.858L139.866 41.758C138.811 42.4639 137.755 43.1764 136.687 43.9088L133.618 45.9869C132.634 46.6467 131.793 47.214 131.09 47.7022L129.747 48.6127C130.301 48.6127 130.888 48.5731 131.507 48.5599H133.305C134.965 48.5343 136.625 48.6379 138.27 48.87C139.286 48.9947 140.268 49.3245 141.156 49.8398C141.784 50.2128 142.26 50.7998 142.498 51.4957C142.735 52.2687 142.847 53.075 142.831 53.884C142.831 54.2534 142.831 54.6361 142.831 55.0385C142.831 55.441 142.831 55.8566 142.772 56.292C142.714 56.7275 142.7 57.4136 142.7 58.0074C142.7 58.6011 142.668 59.2477 142.668 59.881C142.652 60.6949 142.718 61.5083 142.863 62.3088C143 62.929 143.222 63.2655 143.515 63.3116C143.437 63.3116 143.424 63.2193 143.456 63.1137C143.512 62.9701 143.586 62.8347 143.678 62.7113C143.782 62.5529 143.906 62.3814 144.036 62.1967C144.166 62.012 144.31 61.8404 144.46 61.6689H144.421C144.512 61.5544 144.623 61.4563 144.746 61.3786C144.948 61.2575 145.168 61.1706 145.398 61.1213C145.762 61.0361 146.133 60.9809 146.506 60.9564C146.962 60.9234 147.561 60.9036 148.284 60.9036C148.597 61.1015 148.903 61.2731 149.197 61.4314C149.49 61.5897 149.653 61.6491 149.705 61.5963C149.664 61.8215 149.577 62.0353 149.449 62.224C149.321 62.4127 149.155 62.572 148.962 62.6915C148.449 63.0847 147.888 63.4106 147.294 63.6613C146.632 63.9353 145.95 64.1559 145.255 64.321C144.661 64.4781 144.051 64.5644 143.437 64.5783C142.3 64.6153 141.165 64.4546 140.081 64.1033C139.323 63.8545 138.636 63.4219 138.081 62.8432C137.609 62.3285 137.277 61.6989 137.117 61.0158C136.946 60.3186 136.861 59.603 136.862 58.8848C136.862 57.9876 136.895 57.1365 136.973 56.3316C136.973 55.9886 137.019 55.6323 137.045 55.2562C137.071 54.8802 137.077 54.5437 137.077 54.2534C137.096 53.4395 137.03 52.6258 136.882 51.8256C136.795 51.3416 136.589 50.8877 136.283 50.5061C136.012 50.2124 135.652 50.0196 135.26 49.9585C134.792 49.8826 134.319 49.8473 133.846 49.853L127.812 50.1763V58.2383C127.812 58.4626 127.545 58.6341 127.011 58.7726C126.319 58.921 125.613 58.9874 124.906 58.9706C124.162 59.0071 123.417 58.9405 122.691 58.7726C122.3 58.6341 122.111 58.4626 122.111 58.2383V0.78169Z" fill="#0B1547"/>
<path d="M152.835 48.484C152.84 49.8253 153.038 51.1587 153.422 52.4424C153.733 53.5202 154.242 54.5294 154.92 55.4179C155.547 56.2239 156.35 56.872 157.266 57.3113C158.213 57.7614 159.249 57.9871 160.296 57.971C160.946 57.971 161.591 57.8594 162.205 57.6412C162.811 57.4264 163.396 57.1525 163.951 56.8231C164.477 56.5041 164.986 56.1561 165.475 55.7807C165.945 55.4179 166.368 55.121 166.726 54.7977L167.13 54.4678C167.268 54.3584 167.422 54.2716 167.586 54.2105C167.797 54.129 168.015 54.0693 168.238 54.0324C168.606 53.9729 168.979 53.9464 169.352 53.9532C169.99 53.9454 170.627 54.0007 171.255 54.1182C171.776 54.2303 172.063 54.3557 172.108 54.5008C172.063 54.4283 171.932 54.5008 171.73 54.6855L171.02 55.3453C170.355 56.0201 169.618 56.6196 168.824 57.1332C168.042 57.6315 167.207 58.0408 166.335 58.3537C165.392 58.6944 164.416 58.9332 163.423 59.0662C162.28 59.2181 161.129 59.2909 159.976 59.2839C158.142 59.3127 156.314 59.0478 154.562 58.4988C153.064 58.0353 151.672 57.2726 150.47 56.2557C149.348 55.3078 148.456 54.1115 147.864 52.7591C147.259 51.3299 146.957 49.7881 146.978 48.2333C146.964 46.7119 147.298 45.2079 147.955 43.8395C148.606 42.4921 149.534 41.302 150.678 40.3494C151.943 39.343 153.382 38.5825 154.92 38.1063C156.615 37.5442 158.389 37.2656 160.172 37.2817C163.353 37.2832 166.445 38.3477 168.968 40.3099C170.093 41.1914 171.034 42.2902 171.737 43.5426C172.404 44.7524 172.754 46.1153 172.753 47.501C172.753 48.1344 171.687 48.451 169.554 48.451L152.835 48.484ZM167.085 47.1645C166.951 46.002 166.669 44.862 166.244 43.7735C165.869 42.7938 165.346 41.8791 164.694 41.062C164.109 40.3217 163.379 39.7128 162.55 39.2741C161.748 38.8399 160.853 38.6132 159.944 38.6143C159.055 38.6113 158.18 38.8384 157.403 39.2741C156.58 39.7289 155.852 40.3405 155.259 41.0752C154.6 41.8886 154.066 42.7983 153.676 43.7735C153.246 44.8429 152.959 45.9656 152.822 47.1118L167.085 47.1645Z" fill="#0B1547"/>
<path d="M191.03 58.1887C189.222 58.9501 187.28 59.3338 185.322 59.3169C183.668 59.3811 182.02 59.0771 180.494 58.4262C179.352 57.9083 178.361 57.099 177.621 56.0776C176.933 55.0927 176.468 53.9664 176.259 52.7789C176.028 51.5346 175.913 50.2712 175.913 49.0052V38.1261C175.913 37.9018 176.194 37.7237 176.747 37.5785C177.439 37.4132 178.148 37.3378 178.858 37.3542C179.344 37.3489 179.828 37.3688 180.311 37.4136C180.595 37.4324 180.876 37.4878 181.145 37.5785C181.295 37.6222 181.429 37.7093 181.53 37.8292C181.586 37.918 181.618 38.0206 181.621 38.1261V49.1042C181.621 50.1267 181.66 51.1625 181.745 52.2247C181.815 53.2025 181.992 54.1695 182.273 55.1078C182.495 55.8908 182.88 56.6171 183.4 57.2387C183.642 57.5194 183.943 57.7407 184.282 57.8858C184.62 58.031 184.987 58.0962 185.355 58.0766C185.881 58.0687 186.406 58.0023 186.918 57.8787C187.502 57.7457 188.07 57.5488 188.612 57.2915C189.144 57.0463 189.644 56.7337 190.098 56.3613C190.524 56.0296 190.856 55.5906 191.062 55.088V38.1261C191.062 37.9282 191.349 37.7501 191.916 37.5917C192.587 37.421 193.277 37.3411 193.968 37.3542C194.725 37.3149 195.484 37.3838 196.223 37.5587C196.588 37.6907 196.77 37.882 196.77 38.1261V52.8647L197.676 52.6799C197.988 52.8713 198.327 53.056 198.62 53.2275C198.847 53.3631 199.093 53.4611 199.35 53.5178L198.77 53.8477C198.485 54.0052 198.211 54.1815 197.949 54.3755C197.681 54.578 197.426 54.7984 197.187 55.0352C197 55.188 196.856 55.3884 196.77 55.6158V67.4383C196.798 68.2422 196.625 69.0403 196.266 69.7579C195.907 70.4756 195.374 71.0894 194.718 71.5418C193.349 72.5248 191.46 73.0196 189.062 73.0196C188.37 73.0289 187.677 72.9915 186.99 72.9075C186.482 72.8349 186.228 72.6766 186.228 72.4391C186.229 72.3423 186.261 72.2486 186.32 72.1723C186.379 72.096 186.461 72.0414 186.553 72.0168C186.825 71.9208 187.107 71.8588 187.394 71.8321C187.763 71.802 188.133 71.802 188.502 71.8321L189.648 71.9047H189.681C189.994 71.9047 190.248 71.7002 190.443 71.2977C190.66 70.8196 190.801 70.3097 190.86 69.7869C190.95 69.1305 191.007 68.4699 191.03 67.8077C191.03 67.0754 191.062 66.3827 191.062 65.7295L191.03 58.1887ZM199.5 53.4452C199.49 53.4569 199.478 53.4664 199.465 53.4732C199.451 53.48 199.437 53.4839 199.422 53.4848H199.37C199.353 53.4914 199.334 53.4914 199.318 53.4848C199.435 53.5706 199.5 53.5442 199.5 53.4386V53.4452Z" fill="#0B1547"/>
</g>
<defs>
<clipPath id="clip0_204_121">
<rect width="199" height="73" fill="white" transform="translate(0.5)"/>
</clipPath>
</defs>
</svg>
