<svg width="18" height="19" viewBox="0 0 18 19" fill="none" xmlns="http://www.w3.org/2000/svg">
<path d="M9 8.5C9.82843 8.5 10.5 7.82843 10.5 7C10.5 6.17157 9.82843 5.5 9 5.5C8.17157 5.5 7.5 6.17157 7.5 7C7.5 7.82843 8.17157 8.5 9 8.5Z" stroke="#0B1547" stroke-width="1.2" stroke-linecap="round" stroke-linejoin="round"/>
<path d="M9 16C9 16 14.25 12.3654 14.25 7.69231C14.25 6.31522 13.6969 4.99454 12.7123 4.02079C11.7277 3.04705 10.3924 2.5 9 2.5C7.60761 2.5 6.27226 3.04705 5.28769 4.02079C4.30312 4.99454 3.75 6.31522 3.75 7.69231C3.75 12.3654 9 16 9 16Z" stroke="#0B1547" stroke-width="1.2" stroke-linecap="round" stroke-linejoin="round"/>
</svg>
