<svg width="16" height="16" viewBox="0 0 16 16" fill="none" xmlns="http://www.w3.org/2000/svg">
<g clip-path="url(#clip0_294_328)">
<path d="M10.3667 8.66668C10.8667 8.66668 11.3067 8.39334 11.5333 7.98001L13.92 3.65334C14.1667 3.21334 13.8467 2.66668 13.34 2.66668H3.47332L2.84666 1.33334H0.666656V2.66668H1.99999L4.39999 7.72668L3.49999 9.35334C3.01332 10.2467 3.65332 11.3333 4.66666 11.3333H12.6667V10H4.66666L5.39999 8.66668H10.3667ZM4.10666 4.00001H12.2067L10.3667 7.33334H5.68666L4.10666 4.00001ZM4.66666 12C3.93332 12 3.33999 12.6 3.33999 13.3333C3.33999 14.0667 3.93332 14.6667 4.66666 14.6667C5.39999 14.6667 5.99999 14.0667 5.99999 13.3333C5.99999 12.6 5.39999 12 4.66666 12ZM11.3333 12C10.6 12 10.0067 12.6 10.0067 13.3333C10.0067 14.0667 10.6 14.6667 11.3333 14.6667C12.0667 14.6667 12.6667 14.0667 12.6667 13.3333C12.6667 12.6 12.0667 12 11.3333 12Z" fill="white"/>
</g>
<defs>
<clipPath id="clip0_294_328">
<rect width="16" height="16" fill="white"/>
</clipPath>
</defs>
</svg>
