<svg width="22" height="22" viewBox="0 0 22 22" fill="none" xmlns="http://www.w3.org/2000/svg">
<path d="M19.4481 12.7695C19.5032 12.3279 19.5584 11.9416 19.5584 11.5C19.5584 7.08442 15.9708 3.44156 11.5 3.44156C11.0584 3.44156 10.6721 3.49675 10.2305 3.55195C9.51299 3.16558 8.74026 3 7.96753 3C5.20779 3 3 5.20779 3 7.96753C3 8.74026 3.16558 9.51299 3.55195 10.2305C3.49675 10.6721 3.44156 11.0584 3.44156 11.5C3.44156 15.9156 7.02922 19.5584 11.5 19.5584C11.9416 19.5584 12.3279 19.5032 12.7695 19.4481C13.487 19.7792 14.2597 20 15.0325 20C17.7922 20 20 17.7922 20 15.0325C20 14.2597 19.7792 13.487 19.4481 12.7695ZM14.8669 14.4253C14.7013 14.7565 14.4805 15.0325 14.1494 15.2532C13.8182 15.474 13.487 15.6396 13.0455 15.75C12.6039 15.8604 12.1071 15.9156 11.5552 15.9156C10.3961 15.9156 9.45779 15.6396 8.79545 15.1429C8.40909 14.8117 8.07792 14.4253 7.91234 13.9286C7.69156 13.487 8.07792 12.9351 8.62987 12.9351H8.79545C9.12662 12.9351 9.45779 13.1558 9.56818 13.4318C9.67857 13.7078 9.84416 13.9286 10.0649 14.0942C10.3961 14.3701 10.8929 14.4805 11.5 14.4805C12.0519 14.4805 12.4935 14.3701 12.8247 14.2045C13.1558 14.039 13.3214 13.7078 13.3214 13.3766C13.3214 13.211 13.2662 13.1006 13.211 12.9903C13.1558 12.8799 12.9903 12.7695 12.8799 12.7143C12.7143 12.6039 12.5487 12.5487 12.2727 12.4935C12.0519 12.4383 11.776 12.3279 11.4448 12.2727L11.1136 12.1623C10.7273 12.0519 10.2857 11.9416 9.95455 11.8312C9.56818 11.7208 9.23701 11.5552 8.96104 11.3896C8.68507 11.224 8.46429 11.0032 8.2987 10.6721C8.13312 10.3961 8.07792 10.0097 8.07792 9.56818C8.07792 9.12662 8.18831 8.74026 8.3539 8.40909C8.51948 8.07792 8.79545 7.80195 9.07143 7.63636C9.4026 7.41558 9.73377 7.25 10.1753 7.19481C10.5617 7.08442 11.0032 7.02922 11.5 7.02922C12.0519 7.02922 12.4935 7.08442 12.9351 7.19481C13.3766 7.30519 13.7078 7.47078 14.039 7.74675C14.3701 7.96753 14.5909 8.24351 14.7565 8.62987C15.0325 9.12662 14.6461 9.78896 14.039 9.78896H13.8734C13.5422 9.78896 13.2662 9.62338 13.1006 9.3474C12.9903 9.18182 12.8799 9.01623 12.7143 8.85065C12.4383 8.62987 11.9968 8.51948 11.5 8.51948C11.0032 8.51948 10.6169 8.62987 10.3409 8.79545C10.0649 8.96104 9.95455 9.23701 9.95455 9.51299C9.95455 9.67857 10.0097 9.78896 10.0649 9.89935C10.1201 10.0097 10.2305 10.1201 10.3961 10.1753C10.5617 10.2305 10.7273 10.3409 10.9481 10.3961C11.1688 10.4513 11.4448 10.5065 11.776 10.6169C12.1071 10.6721 12.3831 10.7825 12.7143 10.8377C12.9903 10.8929 13.2662 11.0032 13.5422 11.0584C13.8182 11.1688 14.039 11.2792 14.2597 11.3896C14.4805 11.5 14.6461 11.6656 14.8117 11.8312C14.9773 11.9968 15.0877 12.2175 15.1429 12.4383C15.2532 12.6591 15.2532 12.9903 15.2532 13.3214C15.1429 13.7078 15.0325 14.0942 14.8669 14.4253Z" fill="white"/>
</svg>
