<svg width="20" height="19" viewBox="0 0 20 19" fill="none" xmlns="http://www.w3.org/2000/svg">
<path d="M9.52772 0.358694C9.68337 -0.0890861 10.3166 -0.0890864 10.4723 0.358694L12.472 6.11168C12.5407 6.30922 12.725 6.44315 12.9341 6.44741L19.0235 6.57151C19.4974 6.58116 19.6931 7.18344 19.3154 7.46984L14.4619 11.1495C14.2953 11.2758 14.2248 11.4925 14.2854 11.6927L16.0491 17.5224C16.1864 17.9761 15.6741 18.3484 15.2849 18.0776L10.2856 14.5987C10.1139 14.4793 9.88607 14.4793 9.71441 14.5987L4.71507 18.0776C4.32595 18.3484 3.81362 17.9761 3.9509 17.5224L5.7146 11.6927C5.77516 11.4925 5.70474 11.2758 5.53809 11.1495L0.68463 7.46984C0.306864 7.18344 0.502554 6.58116 0.976516 6.57151L7.06589 6.44741C7.27497 6.44315 7.45932 6.30922 7.52798 6.11168L9.52772 0.358694Z" fill="#FCC154"/>
</svg>
