<svg width="18" height="12" viewBox="0 0 18 12" fill="none" xmlns="http://www.w3.org/2000/svg">
<path fill-rule="evenodd" clip-rule="evenodd" d="M1.85113 11.6455C1.53018 11.5526 1.23735 11.3874 0.997329 11.1639C0.757308 10.9403 0.577148 10.665 0.472048 10.361C-0.128519 8.7899 -0.306465 2.22954 0.850182 0.934459C1.23514 0.513159 1.77864 0.253775 2.36272 0.212607C5.46565 -0.105856 15.0525 -0.0633941 16.1535 0.318762C16.4632 0.414658 16.7461 0.576205 16.9811 0.791298C17.2161 1.00639 17.397 1.26945 17.5104 1.56077C18.1665 3.18494 18.1888 9.08713 17.4214 10.6476C17.2178 11.0538 16.877 11.3828 16.4538 11.5818C15.2972 12.1338 3.38591 12.1231 1.85113 11.6455ZM6.778 8.56697L12.3388 5.80695L6.778 3.0257V8.56697Z" fill="white"/>
</svg>
