<svg width="18" height="11" viewBox="0 0 18 11" fill="none" xmlns="http://www.w3.org/2000/svg">
<path d="M9.80393 10.9998C3.65403 10.9998 0.14622 6.87067 6.10352e-05 -0.000198364H3.08064C3.18182 5.04284 5.4529 7.17898 7.25178 7.61942V-0.000198364H10.1525V4.34915C11.9289 4.16196 13.7952 2.17998 14.4248 -0.000198364H17.3255C17.0882 1.13051 16.6153 2.2011 15.9363 3.14462C15.2573 4.08815 14.3867 4.8843 13.3792 5.48328C14.5039 6.0306 15.4972 6.80526 16.2937 7.75617C17.0903 8.70708 17.6718 9.81261 18.0001 10.9998H14.8071C14.5124 9.96864 13.9136 9.04558 13.0856 8.34631C12.2576 7.64704 11.2372 7.20266 10.1525 7.06887V10.9998H9.80393Z" fill="white"/>
</svg>
