<svg width="22" height="22" viewBox="0 0 22 22" fill="none" xmlns="http://www.w3.org/2000/svg">
<path d="M17.2985 4.69247C15.623 3.02282 13.3891 2.09525 11.031 2.09525C6.12873 2.09525 2.15727 6.05292 2.15727 10.9382C2.15727 12.4841 2.59165 14.0301 3.3363 15.3287L2.09521 19.9048L6.81133 18.668C8.11446 19.3482 9.5417 19.7193 11.031 19.7193C15.9333 19.7193 19.9047 15.7616 19.9047 10.8763C19.8427 8.5883 18.9739 6.36211 17.2985 4.69247ZM15.3127 14.0919C15.1266 14.5866 14.2578 15.0814 13.8234 15.1432C13.4511 15.205 12.9547 15.205 12.4582 15.0814C12.148 14.9577 11.7136 14.834 11.2172 14.5866C8.98322 13.6591 7.55598 11.4329 7.43187 11.2474C7.30776 11.1237 6.50106 10.0724 6.50106 8.95933C6.50106 7.84624 7.05954 7.35153 7.2457 7.10417C7.43187 6.85682 7.68008 6.85682 7.86624 6.85682C7.99035 6.85682 8.17651 6.85682 8.30062 6.85682C8.42473 6.85682 8.61089 6.79498 8.79706 7.22785C8.98322 7.66072 9.4176 8.77382 9.47965 8.83566C9.5417 8.95933 9.5417 9.08301 9.47965 9.20669C9.4176 9.33037 9.35554 9.45404 9.23143 9.57772C9.10732 9.7014 8.98322 9.88691 8.92116 9.94875C8.79705 10.0724 8.67295 10.1961 8.79706 10.3816C8.92116 10.629 9.35554 11.3092 10.0381 11.9276C10.9069 12.6696 11.5895 12.917 11.8377 13.0407C12.0859 13.1644 12.21 13.1025 12.3341 12.9788C12.4582 12.8552 12.8926 12.3605 13.0167 12.1131C13.1408 11.8657 13.327 11.9276 13.5132 11.9894C13.6993 12.0513 14.8163 12.6078 15.0025 12.7315C15.2507 12.8552 15.3748 12.917 15.4368 12.9788C15.4989 13.1644 15.4989 13.5972 15.3127 14.0919Z" fill="white"/>
</svg>
