<svg width="16" height="16" viewBox="0 0 16 16" fill="none" xmlns="http://www.w3.org/2000/svg">
<path fill-rule="evenodd" clip-rule="evenodd" d="M9.54286 9.54286C8.28572 10.84 8.2 12.4571 8.08571 16C11.3886 16 13.6686 15.9886 14.8457 14.8457C15.9886 13.6686 16 11.28 16 8.08571C12.4571 8.2 10.84 8.28572 9.54286 9.54286ZM7.91429 16C4.61143 16 2.33143 15.9886 1.15429 14.8457C0.0114286 13.6686 0 11.28 0 8.08571C3.54286 8.2 5.16 8.28572 6.45714 9.54286C7.71429 10.84 7.8 12.4571 7.91429 16ZM6.45714 6.45714C5.16 7.71429 3.54286 7.8 0 7.91429C0 4.72 0.0114286 2.33143 1.15429 1.15429C2.33143 0.0114286 4.61714 0 7.91429 0C7.8 3.54286 7.71429 5.16 6.45714 6.45714ZM8.08571 0C8.19429 3.54286 8.28572 5.16 9.54286 6.45714C10.84 7.71429 12.4571 7.8 16 7.91429C16 4.72 15.9886 2.33143 14.8457 1.15429C13.6686 0.0114286 11.3886 0 8.08571 0Z" fill="white"/>
</svg>
